<svg width="608" height="100" viewBox="-10 -5 608 100" fill="none" xmlns="http://www.w3.org/2000/svg">
<mask id="path-1-outside-1_101_140" maskUnits="userSpaceOnUse" x="-2" y="-2" width="612" height="88" fill="black">
<rect fill="white" x="-2" y="-2" width="612" height="88"/>
<path d="M44.2575 82.8028C37.9478 82.8028 32.0887 81.8263 26.6804 79.8733C21.3472 77.8451 16.69 74.9908 12.7089 71.3101C8.80291 67.6294 5.76073 63.2727 3.58238 58.24C1.40403 53.2072 0.314856 47.6487 0.314856 41.5643C0.314856 35.48 1.40403 29.9214 3.58238 24.8887C5.76073 19.8559 8.80291 15.4992 12.7089 11.8186C16.69 8.1379 21.3472 5.32107 26.6804 3.36807C32.0887 1.33995 37.9478 0.325886 44.2575 0.325886C51.9944 0.325886 58.8299 1.67797 64.764 4.38213C70.7733 7.08628 75.7309 10.9923 79.6369 16.1002L62.8486 31.0857C60.52 28.1562 57.9285 25.9027 55.0741 24.3253C52.2948 22.6728 49.14 21.8465 45.6095 21.8465C42.8303 21.8465 40.3139 22.2972 38.0604 23.1986C35.807 24.1 33.854 25.4145 32.2014 27.1421C30.624 28.8698 29.3846 30.973 28.4832 33.4518C27.5818 35.8555 27.1311 38.5597 27.1311 41.5643C27.1311 44.569 27.5818 47.3107 28.4832 49.7895C29.3846 52.1932 30.624 54.2589 32.2014 55.9865C33.854 57.7142 35.807 59.0287 38.0604 59.9301C40.3139 60.8315 42.8303 61.2822 45.6095 61.2822C49.14 61.2822 52.2948 60.4935 55.0741 58.916C57.9285 57.2635 60.52 54.9725 62.8486 52.043L79.6369 67.0285C75.7309 72.0612 70.7733 75.9673 64.764 78.7465C58.8299 81.4507 51.9944 82.8028 44.2575 82.8028ZM138.282 82.8028C131.898 82.8028 125.964 81.7887 120.48 79.7606C115.072 77.7325 110.377 74.8781 106.396 71.1974C102.415 67.4416 99.2975 63.0474 97.044 58.0146C94.8657 52.9819 93.7765 47.4985 93.7765 41.5643C93.7765 35.5551 94.8657 30.0716 97.044 25.114C99.2975 20.0813 102.415 15.7246 106.396 12.0439C110.377 8.28813 115.072 5.39618 120.48 3.36807C125.964 1.33995 131.898 0.325886 138.282 0.325886C144.742 0.325886 150.677 1.33995 156.085 3.36807C161.493 5.39618 166.188 8.28813 170.169 12.0439C174.15 15.7246 177.23 20.0813 179.408 25.114C181.662 30.0716 182.788 35.5551 182.788 41.5643C182.788 47.4985 181.662 52.9819 179.408 58.0146C177.23 63.0474 174.15 67.4416 170.169 71.1974C166.188 74.8781 161.493 77.7325 156.085 79.7606C150.677 81.7887 144.742 82.8028 138.282 82.8028ZM138.282 61.2822C140.761 61.2822 143.052 60.8315 145.156 59.9301C147.334 59.0287 149.212 57.7517 150.789 56.0992C152.442 54.3715 153.719 52.3059 154.62 49.9022C155.522 47.4233 155.972 44.6441 155.972 41.5643C155.972 38.4846 155.522 35.7429 154.62 33.3392C153.719 30.8604 152.442 28.7947 150.789 27.1421C149.212 25.4145 147.334 24.1 145.156 23.1986C143.052 22.2972 140.761 21.8465 138.282 21.8465C135.804 21.8465 133.475 22.2972 131.297 23.1986C129.194 24.1 127.316 25.4145 125.663 27.1421C124.086 28.7947 122.846 30.8604 121.945 33.3392C121.043 35.7429 120.593 38.4846 120.593 41.5643C120.593 44.6441 121.043 47.4233 121.945 49.9022C122.846 52.3059 124.086 54.3715 125.663 56.0992C127.316 57.7517 129.194 59.0287 131.297 59.9301C133.475 60.8315 135.804 61.2822 138.282 61.2822ZM203.707 81V2.12866H225.566L265.677 50.1275H255.537V2.12866H281.452V81H259.593L219.481 33.0012H229.622V81H203.707Z"/>
<path d="M330.319 35.7053H365.023V55.7612H330.319V35.7053ZM332.122 81H305.531V2.12866H369.642V22.1845H332.122V81ZM389.31 81V2.12866H415.901V81H389.31ZM439.969 81V2.12866H461.827L501.939 50.1275H491.799V2.12866H517.713V81H495.855L455.743 33.0012H465.884V81H439.969ZM566.13 31.4237H601.285V50.5782H566.13V31.4237ZM567.933 60.9441H607.369V81H541.793V2.12866H605.904V22.1845H567.933V60.9441Z"/>
</mask>
<path d="M330.319 35.7053H365.023V55.7612H330.319V35.7053ZM332.122 81H305.531V2.12866H369.642V22.1845H332.122V81ZM389.31 81V2.12866H415.901V81H389.31ZM439.969 81V2.12866H461.827L501.939 50.1275H491.799V2.12866H517.713V81H495.855L455.743 33.0012H465.884V81H439.969ZM566.13 31.4237H601.285V50.5782H566.13V31.4237ZM567.933 60.9441H607.369V81H541.793V2.12866H605.904V22.1845H567.933V60.9441Z" fill="white"/>
<path d="M26.6804 79.8733L25.8794 81.9796L25.8972 81.9863L25.915 81.9928L26.6804 79.8733ZM12.7089 71.3101L11.1635 72.9501L11.1713 72.9575L11.1791 72.9647L12.7089 71.3101ZM3.58238 58.24L1.51433 59.1351L1.51433 59.1351L3.58238 58.24ZM3.58238 24.8887L1.51433 23.9935L1.51433 23.9935L3.58238 24.8887ZM12.7089 11.8186L11.1791 10.1639L11.1713 10.1712L11.1635 10.1785L12.7089 11.8186ZM26.6804 3.36807L27.4553 5.48412L27.4635 5.48112L27.4717 5.47805L26.6804 3.36807ZM64.764 4.38213L63.8296 6.43274L63.8393 6.43711L64.764 4.38213ZM79.6369 16.1002L81.1375 17.7813L82.6957 16.3904L81.427 14.7313L79.6369 16.1002ZM62.8486 31.0857L61.0845 32.4879L62.5692 34.3557L64.3492 32.7669L62.8486 31.0857ZM55.0741 24.3253L53.9224 26.2622L53.953 26.2804L53.9841 26.2976L55.0741 24.3253ZM38.0604 23.1986L38.8973 25.2909L38.8973 25.2909L38.0604 23.1986ZM32.2014 27.1421L30.573 25.5845L30.5549 25.6034L30.5373 25.6227L32.2014 27.1421ZM28.4832 33.4518L30.5932 34.2431L30.5971 34.2325L30.601 34.222L28.4832 33.4518ZM28.4832 49.7895L26.3654 50.5596L26.3692 50.5702L26.3732 50.5807L28.4832 49.7895ZM32.2014 55.9865L30.5373 57.506L30.5549 57.5253L30.573 57.5442L32.2014 55.9865ZM38.0604 59.9301L37.2235 62.0224L37.2235 62.0224L38.0604 59.9301ZM55.0741 58.916L56.1864 60.8758L56.1948 60.8711L56.2032 60.8662L55.0741 58.916ZM62.8486 52.043L64.3492 50.3618L62.5692 48.7729L61.0845 50.6407L62.8486 52.043ZM79.6369 67.0285L81.4171 68.4102L82.7069 66.7483L81.1375 65.3474L79.6369 67.0285ZM64.764 78.7465L65.6985 80.7972L65.71 80.7918L64.764 78.7465ZM44.2575 80.5493C38.1834 80.5493 32.5859 79.6099 27.4458 77.7538L25.915 81.9928C31.5916 84.0426 37.7121 85.0562 44.2575 85.0562V80.5493ZM27.4814 77.767C22.4035 75.8359 17.9971 73.1302 14.2387 69.6554L11.1791 72.9647C15.383 76.8514 20.291 79.8544 25.8794 81.9796L27.4814 77.767ZM14.2544 69.67C10.5763 66.2042 7.70977 62.1026 5.65044 57.3449L1.51433 59.1351C3.8117 64.4428 7.0295 69.0546 11.1635 72.9501L14.2544 69.67ZM5.65044 57.3449C3.60716 52.6242 2.56832 47.3746 2.56832 41.5643H-1.93861C-1.93861 47.9228 -0.799096 53.7903 1.51433 59.1351L5.65044 57.3449ZM2.56832 41.5643C2.56832 35.754 3.60716 30.5045 5.65044 25.7838L1.51433 23.9935C-0.799096 29.3383 -1.93861 35.2059 -1.93861 41.5643H2.56832ZM5.65044 25.7838C7.70977 21.026 10.5763 16.9244 14.2544 13.4586L11.1635 10.1785C7.0295 14.074 3.8117 18.6858 1.51433 23.9935L5.65044 25.7838ZM14.2387 13.4732C17.9908 10.0043 22.3882 7.33967 27.4553 5.48412L25.9055 1.25202C20.3062 3.30247 15.3893 6.27152 11.1791 10.1639L14.2387 13.4732ZM27.4717 5.47805C32.6046 3.55321 38.193 2.57935 44.2575 2.57935V-1.92758C37.7025 -1.92758 31.5729 -0.873314 25.8892 1.25808L27.4717 5.47805ZM44.2575 2.57935C51.7313 2.57935 58.2384 3.88484 63.8296 6.43272L65.6985 2.33154C59.4214 -0.528908 52.2574 -1.92758 44.2575 -1.92758V2.57935ZM63.8393 6.43711C69.5164 8.99184 74.1737 12.6657 77.8468 17.469L81.427 14.7313C77.2881 9.31891 72.0301 5.18073 65.6887 2.32714L63.8393 6.43711ZM78.1363 14.419L61.3479 29.4046L64.3492 32.7669L81.1375 17.7813L78.1363 14.419ZM64.6126 29.6835C62.1262 26.5554 59.3141 24.0938 56.1641 22.353L53.9841 26.2976C56.5429 27.7117 58.9138 29.757 61.0845 32.4879L64.6126 29.6835ZM56.2258 22.3884C53.0665 20.5099 49.5069 19.593 45.6095 19.593V24.1C48.773 24.1 51.5232 24.8357 53.9224 26.2622L56.2258 22.3884ZM45.6095 19.593C42.5848 19.593 39.7789 20.0841 37.2235 21.1063L38.8973 25.2909C40.8489 24.5103 43.0757 24.1 45.6095 24.1V19.593ZM37.2235 21.1063C34.6757 22.1254 32.4516 23.6205 30.573 25.5845L33.8299 28.6998C35.2563 27.2085 36.9382 26.0745 38.8973 25.2909L37.2235 21.1063ZM30.5373 25.6227C28.7373 27.5941 27.3547 29.9611 26.3654 32.6817L30.601 34.222C31.4144 31.985 32.5107 30.1455 33.8656 28.6616L30.5373 25.6227ZM26.3732 32.6606C25.3623 35.3564 24.8776 38.3347 24.8776 41.5643H29.3846C29.3846 38.7847 29.8013 36.3547 30.5932 34.2431L26.3732 32.6606ZM24.8776 41.5643C24.8776 44.7955 25.3627 47.8022 26.3654 50.5596L30.601 49.0194C29.8009 46.8192 29.3846 44.3424 29.3846 41.5643H24.8776ZM26.3732 50.5807C27.3656 53.2271 28.7481 55.5464 30.5373 57.506L33.8656 54.4671C32.4998 52.9713 31.4036 51.1593 30.5932 48.9982L26.3732 50.5807ZM30.573 57.5442C32.4516 59.5082 34.6757 61.0033 37.2235 62.0224L38.8973 57.8378C36.9382 57.0541 35.2563 55.9202 33.8299 54.4289L30.573 57.5442ZM37.2235 62.0224C39.7789 63.0445 42.5848 63.5356 45.6095 63.5356V59.0287C43.0757 59.0287 40.8489 58.6184 38.8973 57.8378L37.2235 62.0224ZM45.6095 63.5356C49.4881 63.5356 53.0334 62.6654 56.1864 60.8758L53.9618 56.9562C51.5562 58.3215 48.7919 59.0287 45.6095 59.0287V63.5356ZM56.2032 60.8662C59.3323 59.0546 62.132 56.566 64.6126 53.4452L61.0845 50.6407C58.908 53.3789 56.5247 55.4723 53.945 56.9658L56.2032 60.8662ZM61.3479 53.7241L78.1363 68.7097L81.1375 65.3474L64.3492 50.3618L61.3479 53.7241ZM77.8567 65.6469C74.1805 70.3835 69.5134 74.0671 63.8181 76.7012L65.71 80.7918C72.0331 77.8674 77.2813 73.739 81.4171 68.4102L77.8567 65.6469ZM63.8296 76.6959C58.2384 79.2438 51.7313 80.5493 44.2575 80.5493V85.0562C52.2574 85.0562 59.4214 83.6576 65.6985 80.7971L63.8296 76.6959ZM120.48 79.7606L119.689 81.8706L119.698 81.8741L120.48 79.7606ZM106.396 71.1974L104.85 72.8366L104.858 72.8444L104.866 72.8521L106.396 71.1974ZM97.044 58.0146L94.976 58.9098L94.9816 58.9227L94.9873 58.9355L97.044 58.0146ZM97.044 25.114L94.9873 24.1931L94.9841 24.2003L94.9809 24.2075L97.044 25.114ZM106.396 12.0439L107.926 13.6986L107.934 13.6909L107.942 13.6831L106.396 12.0439ZM120.48 3.36807L119.698 1.25451L119.689 1.25808L120.48 3.36807ZM156.085 3.36807L155.294 5.47805L155.294 5.47805L156.085 3.36807ZM170.169 12.0439L168.623 13.6831L168.631 13.6909L168.639 13.6986L170.169 12.0439ZM179.408 25.114L177.34 26.0091L177.348 26.0279L177.357 26.0465L179.408 25.114ZM179.408 58.0146L177.352 57.0937L177.346 57.1066L177.34 57.1195L179.408 58.0146ZM170.169 71.1974L171.699 72.8521L171.707 72.8444L171.715 72.8366L170.169 71.1974ZM156.085 79.7606L155.294 77.6506L155.294 77.6506L156.085 79.7606ZM145.156 59.9301L144.294 57.8478L144.281 57.8533L144.268 57.8588L145.156 59.9301ZM150.789 56.0992L149.161 54.5415L149.159 54.5432L150.789 56.0992ZM154.62 49.9022L156.73 50.6934L156.734 50.6829L156.738 50.6723L154.62 49.9022ZM154.62 33.3392L152.502 34.1093L152.506 34.1199L152.51 34.1304L154.62 33.3392ZM150.789 27.1421L149.125 28.6616L149.16 28.6994L149.196 28.7356L150.789 27.1421ZM145.156 23.1986L144.268 25.2698L144.281 25.2754L144.294 25.2808L145.156 23.1986ZM131.297 23.1986L130.435 21.1163L130.422 21.1217L130.409 21.1273L131.297 23.1986ZM125.663 27.1421L124.035 25.5845L124.033 25.5862L125.663 27.1421ZM121.945 33.3392L124.055 34.1304L124.059 34.1199L124.063 34.1093L121.945 33.3392ZM121.945 49.9022L119.827 50.6723L119.831 50.6829L119.835 50.6934L121.945 49.9022ZM125.663 56.0992L123.999 57.6186L124.033 57.6564L124.07 57.6926L125.663 56.0992ZM131.297 59.9301L130.409 62.0013L130.422 62.0069L130.435 62.0123L131.297 59.9301ZM138.282 80.5493C132.14 80.5493 126.473 79.5745 121.262 77.6471L119.698 81.8741C125.454 84.003 131.655 85.0562 138.282 85.0562V80.5493ZM121.271 77.6506C116.118 75.7182 111.679 73.0125 107.926 69.5428L104.866 72.8521C109.075 76.7436 114.025 79.7467 119.689 81.8706L121.271 77.6506ZM107.942 69.5583C104.179 66.0076 101.234 61.8579 99.1007 57.0937L94.9873 58.9355C97.3611 64.2369 100.651 68.8757 104.85 72.8366L107.942 69.5583ZM99.1121 57.1195C97.0658 52.3919 96.03 47.2161 96.03 41.5643H91.523C91.523 47.7808 92.6656 53.5719 94.976 58.9098L99.1121 57.1195ZM96.03 41.5643C96.03 35.8328 97.0675 30.6625 99.1071 26.0205L94.9809 24.2075C92.6639 29.4808 91.523 35.2774 91.523 41.5643H96.03ZM99.1007 26.0349C101.232 21.275 104.172 17.1691 107.926 13.6986L104.866 10.3893C100.658 14.28 97.3629 18.8876 94.9873 24.1931L99.1007 26.0349ZM107.942 13.6831C111.694 10.1441 116.128 7.4069 121.271 5.47805L119.689 1.25808C114.016 3.38547 109.061 6.43214 104.85 10.4048L107.942 13.6831ZM121.262 5.4816C126.473 3.55419 132.14 2.57935 138.282 2.57935V-1.92758C131.655 -1.92758 125.454 -0.874299 119.698 1.25453L121.262 5.4816ZM138.282 2.57935C144.504 2.57935 150.166 3.55538 155.294 5.47805L156.876 1.25808C151.187 -0.875482 144.981 -1.92758 138.282 -1.92758V2.57935ZM155.294 5.47805C160.437 7.4069 164.871 10.1441 168.623 13.6831L171.715 10.4048C167.504 6.43214 162.549 3.38547 156.876 1.25808L155.294 5.47805ZM168.639 13.6986C172.387 17.1638 175.285 21.2609 177.34 26.0091L181.476 24.2189C179.175 18.9017 175.913 14.2854 171.699 10.3893L168.639 13.6986ZM177.357 26.0465C179.464 30.6822 180.535 35.8432 180.535 41.5643H185.042C185.042 35.267 183.86 29.4611 181.46 24.1815L177.357 26.0465ZM180.535 41.5643C180.535 47.2056 179.466 52.3722 177.352 57.0937L181.465 58.9356C183.858 53.5915 185.042 47.7913 185.042 41.5643H180.535ZM177.34 57.1195C175.283 61.872 172.381 66.0129 168.623 69.5583L171.715 72.8366C175.92 68.8704 179.177 64.2228 181.476 58.9098L177.34 57.1195ZM168.639 69.5428C164.886 73.0125 160.447 75.7182 155.294 77.6506L156.876 81.8706C162.54 79.7467 167.49 76.7436 171.699 72.8521L168.639 69.5428ZM155.294 77.6506C150.166 79.5733 144.504 80.5493 138.282 80.5493V85.0562C144.981 85.0562 151.187 84.0041 156.876 81.8706L155.294 77.6506ZM138.282 63.5356C141.041 63.5356 143.637 63.0327 146.043 62.0013L144.268 57.8588C142.468 58.6303 140.482 59.0287 138.282 59.0287V63.5356ZM146.017 62.0123C148.476 60.9949 150.618 59.542 152.419 57.6552L149.159 54.5432C147.805 55.9614 146.192 57.0625 144.294 57.8478L146.017 62.0123ZM152.418 57.6568C154.296 55.693 155.73 53.3612 156.73 50.6934L152.51 49.1109C151.708 51.2505 150.587 53.05 149.161 54.5415L152.418 57.6568ZM156.738 50.6723C157.743 47.9091 158.226 44.8635 158.226 41.5643H153.719C153.719 44.4246 153.3 46.9376 152.502 49.132L156.738 50.6723ZM158.226 41.5643C158.226 38.2669 157.743 35.2496 156.73 32.5479L152.51 34.1304C153.3 36.2362 153.719 38.7023 153.719 41.5643H158.226ZM156.738 32.5691C155.739 29.8207 154.296 27.4624 152.383 25.5487L149.196 28.7356C150.587 30.127 151.699 31.9 152.502 34.1093L156.738 32.5691ZM152.453 25.6227C150.651 23.6489 148.499 22.1432 146.017 21.1163L144.294 25.2808C146.169 26.0568 147.772 27.1801 149.125 28.6616L152.453 25.6227ZM146.043 21.1273C143.637 20.096 141.041 19.593 138.282 19.593V24.1C140.482 24.1 142.468 24.4984 144.268 25.2698L146.043 21.1273ZM138.282 19.593C135.523 19.593 132.901 20.0961 130.435 21.1163L132.158 25.2808C134.05 24.4982 136.084 24.1 138.282 24.1V19.593ZM130.409 21.1273C128.014 22.1536 125.887 23.6475 124.035 25.5845L127.292 28.6998C128.744 27.1815 130.373 26.0463 132.184 25.2698L130.409 21.1273ZM124.033 25.5862C122.21 27.4963 120.819 29.8423 119.827 32.5691L124.063 34.1093C124.874 31.8784 125.962 30.093 127.293 28.6981L124.033 25.5862ZM119.835 32.5479C118.822 35.2496 118.339 38.2669 118.339 41.5643H122.846C122.846 38.7023 123.265 36.2362 124.055 34.1304L119.835 32.5479ZM118.339 41.5643C118.339 44.8635 118.822 47.9091 119.827 50.6723L124.063 49.132C123.265 46.9376 122.846 44.4246 122.846 41.5643H118.339ZM119.835 50.6934C120.827 53.3398 122.21 55.6591 123.999 57.6186L127.327 54.5797C125.962 53.084 124.865 51.2719 124.055 49.1109L119.835 50.6934ZM124.07 57.6926C125.92 59.5435 128.037 60.9846 130.409 62.0013L132.184 57.8588C130.35 57.0728 128.711 55.96 127.257 54.5057L124.07 57.6926ZM130.435 62.0123C132.901 63.0325 135.523 63.5356 138.282 63.5356V59.0287C136.084 59.0287 134.05 58.6304 132.158 57.8478L130.435 62.0123ZM203.707 81H201.453V83.2535H203.707V81ZM203.707 2.12866V-0.12481H201.453V2.12866H203.707ZM225.566 2.12866L227.295 0.683628L226.619 -0.12481H225.566V2.12866ZM265.677 50.1275V52.381H270.497L267.406 48.6825L265.677 50.1275ZM255.537 50.1275H253.283V52.381H255.537V50.1275ZM255.537 2.12866V-0.12481H253.283V2.12866H255.537ZM281.452 2.12866H283.705V-0.12481H281.452V2.12866ZM281.452 81V83.2535H283.705V81H281.452ZM259.593 81L257.864 82.445L258.539 83.2535H259.593V81ZM219.481 33.0012V30.7477H214.661L217.752 34.4462L219.481 33.0012ZM229.622 33.0012H231.875V30.7477H229.622V33.0012ZM229.622 81V83.2535H231.875V81H229.622ZM205.96 81V2.12866H201.453V81H205.96ZM203.707 4.38212H225.566V-0.12481H203.707V4.38212ZM223.836 3.57369L263.948 51.5725L267.406 48.6825L227.295 0.683628L223.836 3.57369ZM265.677 47.874H255.537V52.381H265.677V47.874ZM257.79 50.1275V2.12866H253.283V50.1275H257.79ZM255.537 4.38212H281.452V-0.12481H255.537V4.38212ZM279.198 2.12866V81H283.705V2.12866H279.198ZM281.452 78.7465H259.593V83.2535H281.452V78.7465ZM261.322 79.555L221.21 31.5561L217.752 34.4462L257.864 82.445L261.322 79.555ZM219.481 35.2546H229.622V30.7477H219.481V35.2546ZM227.368 33.0012V81H231.875V33.0012H227.368ZM229.622 78.7465H203.707V83.2535H229.622V78.7465ZM330.319 35.7053V33.4518H328.066V35.7053H330.319ZM365.023 35.7053H367.276V33.4518H365.023V35.7053ZM365.023 55.7612V58.0146H367.276V55.7612H365.023ZM330.319 55.7612H328.066V58.0146H330.319V55.7612ZM332.122 81V83.2535H334.375V81H332.122ZM305.531 81H303.278V83.2535H305.531V81ZM305.531 2.12866V-0.12481H303.278V2.12866H305.531ZM369.642 2.12866H371.896V-0.12481H369.642V2.12866ZM369.642 22.1845V24.438H371.896V22.1845H369.642ZM332.122 22.1845V19.931H329.869V22.1845H332.122ZM330.319 37.9588H365.023V33.4518H330.319V37.9588ZM362.769 35.7053V55.7612H367.276V35.7053H362.769ZM365.023 53.5077H330.319V58.0146H365.023V53.5077ZM332.573 55.7612V35.7053H328.066V55.7612H332.573ZM332.122 78.7465H305.531V83.2535H332.122V78.7465ZM307.785 81V2.12866H303.278V81H307.785ZM305.531 4.38212H369.642V-0.12481H305.531V4.38212ZM367.389 2.12866V22.1845H371.896V2.12866H367.389ZM369.642 19.931H332.122V24.438H369.642V19.931ZM329.869 22.1845V81H334.375V22.1845H329.869ZM389.31 81H387.056V83.2535H389.31V81ZM389.31 2.12866V-0.12481H387.056V2.12866H389.31ZM415.901 2.12866H418.154V-0.12481H415.901V2.12866ZM415.901 81V83.2535H418.154V81H415.901ZM391.563 81V2.12866H387.056V81H391.563ZM389.31 4.38212H415.901V-0.12481H389.31V4.38212ZM413.647 2.12866V81H418.154V2.12866H413.647ZM415.901 78.7465H389.31V83.2535H415.901V78.7465ZM439.969 81H437.715V83.2535H439.969V81ZM439.969 2.12866V-0.12481H437.715V2.12866H439.969ZM461.827 2.12866L463.557 0.683628L462.881 -0.12481H461.827V2.12866ZM501.939 50.1275V52.381H506.759L503.668 48.6825L501.939 50.1275ZM491.799 50.1275H489.545V52.381H491.799V50.1275ZM491.799 2.12866V-0.12481H489.545V2.12866H491.799ZM517.713 2.12866H519.967V-0.12481H517.713V2.12866ZM517.713 81V83.2535H519.967V81H517.713ZM495.855 81L494.126 82.445L494.801 83.2535H495.855V81ZM455.743 33.0012V30.7477H450.923L454.014 34.4462L455.743 33.0012ZM465.884 33.0012H468.137V30.7477H465.884V33.0012ZM465.884 81V83.2535H468.137V81H465.884ZM442.222 81V2.12866H437.715V81H442.222ZM439.969 4.38212H461.827V-0.12481H439.969V4.38212ZM460.098 3.57369L500.21 51.5725L503.668 48.6825L463.557 0.683628L460.098 3.57369ZM501.939 47.874H491.799V52.381H501.939V47.874ZM494.052 50.1275V2.12866H489.545V50.1275H494.052ZM491.799 4.38212H517.713V-0.12481H491.799V4.38212ZM515.46 2.12866V81H519.967V2.12866H515.46ZM517.713 78.7465H495.855V83.2535H517.713V78.7465ZM497.584 79.555L457.472 31.5561L454.014 34.4462L494.126 82.445L497.584 79.555ZM455.743 35.2546H465.884V30.7477H455.743V35.2546ZM463.63 33.0012V81H468.137V33.0012H463.63ZM465.884 78.7465H439.969V83.2535H465.884V78.7465ZM566.13 31.4237V29.1703H563.877V31.4237H566.13ZM601.285 31.4237H603.538V29.1703H601.285V31.4237ZM601.285 50.5782V52.8317H603.538V50.5782H601.285ZM566.13 50.5782H563.877V52.8317H566.13V50.5782ZM567.933 60.9441H565.68V63.1976H567.933V60.9441ZM607.369 60.9441H609.622V58.6907H607.369V60.9441ZM607.369 81V83.2535H609.622V81H607.369ZM541.793 81H539.54V83.2535H541.793V81ZM541.793 2.12866V-0.12481H539.54V2.12866H541.793ZM605.904 2.12866H608.158V-0.12481H605.904V2.12866ZM605.904 22.1845V24.438H608.158V22.1845H605.904ZM567.933 22.1845V19.931H565.68V22.1845H567.933ZM566.13 33.6772H601.285V29.1703H566.13V33.6772ZM599.031 31.4237V50.5782H603.538V31.4237H599.031ZM601.285 48.3247H566.13V52.8317H601.285V48.3247ZM568.384 50.5782V31.4237H563.877V50.5782H568.384ZM567.933 63.1976H607.369V58.6907H567.933V63.1976ZM605.115 60.9441V81H609.622V60.9441H605.115ZM607.369 78.7465H541.793V83.2535H607.369V78.7465ZM544.046 81V2.12866H539.54V81H544.046ZM541.793 4.38212H605.904V-0.12481H541.793V4.38212ZM603.651 2.12866V22.1845H608.158V2.12866H603.651ZM605.904 19.931H567.933V24.438H605.904V19.931ZM565.68 22.1845V60.9441H570.187V22.1845H565.68Z" fill="white" mask="url(#path-1-outside-1_101_140)"/>
</svg>
