<svg width="1440" height="1444" viewBox="0 0 1440 1444" fill="none" xmlns="http://www.w3.org/2000/svg">
<path d="M-160.26 1.66692C35.6307 -6.91417 457.026 63.8889 575.479 415.75C723.545 855.577 1182.66 904.753 1747.96 899.276" stroke="#42FF00" stroke-width="1.1478"/>
<path d="M-186.66 69.5853C9.23133 61.0042 430.627 131.807 549.079 483.669C697.145 923.495 1156.26 972.672 1721.56 967.194" stroke="#42FF00" stroke-width="1.1478"/>
<path d="M-213.059 137.504C-17.1681 128.923 404.227 199.726 522.68 551.587C670.746 991.414 1129.87 1040.59 1695.16 1035.11" stroke="#42FF00" stroke-width="1.1478"/>
<path d="M-239.458 205.422C-43.5675 196.841 377.828 267.644 496.281 619.505C644.347 1059.33 1103.47 1108.51 1668.76 1103.03" stroke="#42FF00" stroke-width="1.1478"/>
<path d="M-265.858 273.34C-69.9669 264.759 351.428 335.562 469.881 687.424C617.947 1127.25 1077.07 1176.43 1642.36 1170.95" stroke="#42FF00" stroke-width="1.1478"/>
<path d="M-292.257 341.259C-96.3658 332.678 325.029 403.481 443.482 755.342C591.548 1195.17 1050.67 1244.35 1615.96 1238.87" stroke="#42FF00" stroke-width="1.1478"/>
<path d="M-318.656 409.177C-122.765 400.596 298.63 471.399 417.083 823.261C565.149 1263.09 1024.27 1312.26 1589.56 1306.79" stroke="#42FF00" stroke-width="1.1478"/>
<path d="M-345.056 477.096C-149.165 468.515 272.231 539.318 390.683 891.179C538.749 1331.01 997.869 1380.18 1563.16 1374.7" stroke="#42FF00" stroke-width="1.1478"/>
<path d="M-371.455 545.014C-175.564 536.433 245.831 607.236 364.284 959.097C512.35 1398.92 971.469 1448.1 1536.76 1442.62" stroke="#42FF00" stroke-width="1.1478"/>
</svg>
