<svg width="634" height="90" viewBox="0 -2 634 90" fill="none" xmlns="http://www.w3.org/2000/svg">
<mask id="path-1-outside-1_107_2" maskUnits="userSpaceOnUse" x="-3" y="-2" width="639" height="88" fill="black">
<rect fill="white" x="-3" y="-2" width="639" height="88"/>
<path d="M0.225347 81L15.9996 2.12866H51.041C61.6323 2.12866 69.7824 4.41968 75.4911 9.00173C81.275 13.5838 84.167 20.0062 84.167 28.2689C84.167 34.879 82.5144 40.7005 79.2094 45.7332C75.9794 50.766 71.3598 54.672 65.3505 57.4513C59.4164 60.2305 52.3931 61.6202 44.2806 61.6202H18.8164L33.0133 50.0148L26.8163 81H0.225347ZM32.3372 53.1697L22.9854 41.1136H45.6327C49.3134 41.1136 52.1678 40.2123 54.1959 38.4095C56.224 36.5316 57.2381 33.9401 57.2381 30.635C57.2381 27.7806 56.3367 25.7525 54.5339 24.5507C52.8062 23.2737 50.4025 22.6352 47.3228 22.6352H26.7036L40.9004 10.2411L32.3372 53.1697ZM94.1271 81L109.901 2.12866H145.281C155.722 2.12866 163.797 4.41968 169.506 9.00173C175.214 13.5087 178.069 19.8559 178.069 28.0435C178.069 34.6537 176.416 40.4376 173.111 45.3952C169.881 50.3529 165.262 54.2213 159.252 57.0006C153.318 59.7799 146.295 61.1695 138.182 61.1695H112.718L126.915 50.0148L120.718 81H94.1271ZM142.351 81L126.126 52.2683H153.506L169.956 81H142.351ZM126.239 53.1697L116.887 41.1136H139.534C143.215 41.1136 146.07 40.2123 148.098 38.4095C150.126 36.5316 151.14 33.9401 151.14 30.635C151.14 27.7806 150.238 25.7525 148.436 24.5507C146.708 23.2737 144.304 22.6352 141.225 22.6352H120.605L134.802 10.2411L126.239 53.1697ZM223.602 31.4237H258.756L254.925 50.5782H219.771L223.602 31.4237ZM219.433 60.9441H258.981L254.925 81H189.349L205.124 2.12866H269.235L265.178 22.1845H227.208L219.433 60.9441Z"/>
<path d="M307.752 82.8028C303.095 82.8028 298.626 82.4648 294.344 81.7887C290.063 81.1127 286.157 80.1737 282.626 78.9719C279.171 77.6949 276.166 76.3053 273.612 74.803L283.866 55.1978C286.795 56.8503 289.725 58.24 292.654 59.3667C295.659 60.4183 298.626 61.207 301.555 61.7329C304.56 62.2587 307.527 62.5216 310.456 62.5216C312.785 62.5216 314.7 62.3338 316.203 61.9582C317.78 61.5826 318.944 61.0568 319.696 60.3808C320.522 59.6296 320.935 58.8034 320.935 57.902C320.935 56.7001 320.259 55.7236 318.907 54.9725C317.555 54.2213 315.752 53.5453 313.499 52.9443C311.32 52.3434 308.879 51.7425 306.175 51.1416C303.546 50.4655 300.879 49.6393 298.175 48.6628C295.471 47.6111 292.992 46.2966 290.739 44.7192C288.56 43.1418 286.795 41.1512 285.443 38.7475C284.091 36.3438 283.415 33.4143 283.415 29.959C283.415 23.9497 284.992 18.7292 288.147 14.2974C291.377 9.86556 295.959 6.4478 301.893 4.04411C307.903 1.56529 315.038 0.325886 323.301 0.325886C329.16 0.325886 334.606 0.92681 339.639 2.12866C344.747 3.25539 349.141 4.90793 352.822 7.08629L343.244 26.4661C340.09 24.5131 336.634 23.0483 332.878 22.0718C329.198 21.0953 325.442 20.6071 321.611 20.6071C319.057 20.6071 316.916 20.87 315.189 21.3958C313.461 21.8465 312.147 22.485 311.245 23.3112C310.419 24.1375 310.006 25.0013 310.006 25.9027C310.006 27.1046 310.682 28.1186 312.034 28.9449C313.386 29.6961 315.189 30.3721 317.442 30.973C319.696 31.4988 322.137 32.0998 324.766 32.7758C327.47 33.3767 330.137 34.1654 332.766 35.142C335.47 36.0433 337.949 37.2827 340.202 38.8602C342.456 40.3625 344.258 42.3155 345.611 44.7192C346.963 47.0478 347.639 49.9397 347.639 53.395C347.639 59.254 346.024 64.3995 342.794 68.8313C339.564 73.188 334.944 76.6057 328.935 79.0846C323.001 81.5634 315.94 82.8028 307.752 82.8028ZM396.001 31.4237H431.155L427.324 50.5782H392.17L396.001 31.4237ZM391.832 60.9441H431.38L427.324 81H361.748L377.523 2.12866H441.634L437.577 22.1845H399.607L391.832 60.9441ZM448.828 81L464.602 2.12866H486.461L516.094 50.1275H506.855L516.432 2.12866H542.347L526.573 81H504.714L475.081 33.0012H484.32L474.743 81H448.828ZM567.779 81L579.384 22.7479H556.286L560.455 2.12866H633.242L629.073 22.7479H605.975L594.369 81H567.779Z"/>
</mask>
<path d="M0.225347 81L15.9996 2.12866H51.041C61.6323 2.12866 69.7824 4.41968 75.4911 9.00173C81.275 13.5838 84.167 20.0062 84.167 28.2689C84.167 34.879 82.5144 40.7005 79.2094 45.7332C75.9794 50.766 71.3598 54.672 65.3505 57.4513C59.4164 60.2305 52.3931 61.6202 44.2806 61.6202H18.8164L33.0133 50.0148L26.8163 81H0.225347ZM32.3372 53.1697L22.9854 41.1136H45.6327C49.3134 41.1136 52.1678 40.2123 54.1959 38.4095C56.224 36.5316 57.2381 33.9401 57.2381 30.635C57.2381 27.7806 56.3367 25.7525 54.5339 24.5507C52.8062 23.2737 50.4025 22.6352 47.3228 22.6352H26.7036L40.9004 10.2411L32.3372 53.1697ZM94.1271 81L109.901 2.12866H145.281C155.722 2.12866 163.797 4.41968 169.506 9.00173C175.214 13.5087 178.069 19.8559 178.069 28.0435C178.069 34.6537 176.416 40.4376 173.111 45.3952C169.881 50.3529 165.262 54.2213 159.252 57.0006C153.318 59.7799 146.295 61.1695 138.182 61.1695H112.718L126.915 50.0148L120.718 81H94.1271ZM142.351 81L126.126 52.2683H153.506L169.956 81H142.351ZM126.239 53.1697L116.887 41.1136H139.534C143.215 41.1136 146.07 40.2123 148.098 38.4095C150.126 36.5316 151.14 33.9401 151.14 30.635C151.14 27.7806 150.238 25.7525 148.436 24.5507C146.708 23.2737 144.304 22.6352 141.225 22.6352H120.605L134.802 10.2411L126.239 53.1697ZM223.602 31.4237H258.756L254.925 50.5782H219.771L223.602 31.4237ZM219.433 60.9441H258.981L254.925 81H189.349L205.124 2.12866H269.235L265.178 22.1845H227.208L219.433 60.9441Z" fill="white"/>
<path d="M0.225347 81L-1.98436 80.5581L-2.52344 83.2535H0.225347V81ZM15.9996 2.12866V-0.12481H14.1522L13.7899 1.68672L15.9996 2.12866ZM75.4911 9.00173L74.0806 10.7591L74.0862 10.7636L74.0918 10.7681L75.4911 9.00173ZM79.2094 45.7332L77.3258 44.4962L77.3193 44.5061L77.3129 44.5161L79.2094 45.7332ZM65.3505 57.4513L64.4046 55.4059L64.3948 55.4105L65.3505 57.4513ZM18.8164 61.6202L17.3902 59.8755L12.4993 63.8737H18.8164V61.6202ZM33.0133 50.0148L35.223 50.4568L36.4564 44.2896L31.5871 48.2701L33.0133 50.0148ZM26.8163 81V83.2535H28.6637L29.026 81.4419L26.8163 81ZM32.3372 53.1697L30.5567 54.5509L33.5817 58.4506L34.5472 53.6105L32.3372 53.1697ZM22.9854 41.1136V38.8602H18.3854L21.2048 42.4948L22.9854 41.1136ZM54.1959 38.4095L55.693 40.0937L55.7101 40.0785L55.7269 40.063L54.1959 38.4095ZM54.5339 24.5507L53.1945 26.3628L53.2384 26.3953L53.2839 26.4256L54.5339 24.5507ZM26.7036 22.6352L25.2216 20.9376L20.6958 24.8887H26.7036V22.6352ZM40.9004 10.2411L43.1104 10.682L44.4054 4.18988L39.4184 8.54357L40.9004 10.2411ZM2.43505 81.4419L18.2093 2.5706L13.7899 1.68672L-1.98436 80.5581L2.43505 81.4419ZM15.9996 4.38212H51.041V-0.12481H15.9996V4.38212ZM51.041 4.38212C61.3421 4.38212 68.9165 6.61428 74.0806 10.7591L76.9017 7.24433C70.6482 2.22508 61.9225 -0.12481 51.041 -0.12481V4.38212ZM74.0918 10.7681C79.2667 14.8677 81.9135 20.6008 81.9135 28.2689H86.4205C86.4205 19.4116 83.2833 12.2999 76.8905 7.23537L74.0918 10.7681ZM81.9135 28.2689C81.9135 34.4842 80.3661 39.8666 77.3258 44.4962L81.093 46.9702C84.6628 41.5344 86.4205 35.2739 86.4205 28.2689H81.9135ZM77.3129 44.5161C74.3389 49.1499 70.0678 52.7867 64.4046 55.406L66.2965 59.4966C72.6518 56.5573 77.6199 52.382 81.1058 46.9504L77.3129 44.5161ZM64.3948 55.4105C58.8222 58.0205 52.1395 59.3667 44.2806 59.3667V63.8737C52.6467 63.8737 60.0106 62.4406 66.3063 59.492L64.3948 55.4105ZM44.2806 59.3667H18.8164V63.8737H44.2806V59.3667ZM20.2427 63.3649L34.4395 51.7595L31.5871 48.2701L17.3902 59.8755L20.2427 63.3649ZM30.8036 49.5729L24.6065 80.5581L29.026 81.4419L35.223 50.4568L30.8036 49.5729ZM26.8163 78.7465H0.225347V83.2535H26.8163V78.7465ZM34.1178 51.7885L24.7659 39.7324L21.2048 42.4948L30.5567 54.5509L34.1178 51.7885ZM22.9854 43.3671H45.6327V38.8602H22.9854V43.3671ZM45.6327 43.3671C49.6668 43.3671 53.1249 42.3765 55.693 40.0937L52.6988 36.7252C51.2106 38.048 48.96 38.8602 45.6327 38.8602V43.3671ZM55.7269 40.063C58.3051 37.6758 59.4915 34.4345 59.4915 30.635H54.9846C54.9846 33.4457 54.1429 35.3874 52.6649 36.756L55.7269 40.063ZM59.4915 30.635C59.4915 27.2933 58.4067 24.4242 55.7839 22.6757L53.2839 26.4256C54.2666 27.0808 54.9846 28.2679 54.9846 30.635H59.4915ZM55.8733 22.7385C53.6221 21.0745 50.6829 20.3817 47.3228 20.3817V24.8887C50.1222 24.8887 51.9904 25.4729 53.1945 26.3628L55.8733 22.7385ZM47.3228 20.3817H26.7036V24.8887H47.3228V20.3817ZM28.1856 24.3328L42.3824 11.9387L39.4184 8.54357L25.2216 20.9376L28.1856 24.3328ZM38.6905 9.80031L30.1273 52.7289L34.5472 53.6105L43.1104 10.682L38.6905 9.80031ZM94.1271 81L91.9174 80.5581L91.3783 83.2535H94.1271V81ZM109.901 2.12866V-0.12481H108.054L107.692 1.68672L109.901 2.12866ZM169.506 9.00173L168.095 10.7591L168.102 10.7648L168.109 10.7704L169.506 9.00173ZM173.111 45.3952L171.236 44.1452L171.23 44.1551L171.223 44.1651L173.111 45.3952ZM159.252 57.0006L158.306 54.9552L158.297 54.9598L159.252 57.0006ZM112.718 61.1695L111.326 59.3975L106.203 63.423H112.718V61.1695ZM126.915 50.0148L129.125 50.4568L130.322 44.4724L125.523 48.2429L126.915 50.0148ZM120.718 81V83.2535H122.565L122.928 81.4419L120.718 81ZM142.351 81L140.389 82.1081L141.036 83.2535H142.351V81ZM126.126 52.2683V50.0148H122.266L124.164 53.3764L126.126 52.2683ZM153.506 52.2683L155.462 51.1486L154.812 50.0148H153.506V52.2683ZM169.956 81V83.2535H173.843L171.912 79.8803L169.956 81ZM126.239 53.1697L124.458 54.5509L127.483 58.4506L128.449 53.6105L126.239 53.1697ZM116.887 41.1136V38.8602H112.287L115.107 42.4948L116.887 41.1136ZM148.098 38.4095L149.595 40.0937L149.612 40.0785L149.629 40.063L148.098 38.4095ZM148.436 24.5507L147.096 26.3628L147.14 26.3953L147.186 26.4256L148.436 24.5507ZM120.605 22.6352L119.123 20.9376L114.598 24.8887H120.605V22.6352ZM134.802 10.2411L137.012 10.682L138.307 4.18988L133.32 8.54357L134.802 10.2411ZM96.3368 81.4419L112.111 2.5706L107.692 1.68672L91.9174 80.5581L96.3368 81.4419ZM109.901 4.38212H145.281V-0.12481H109.901V4.38212ZM145.281 4.38212C155.423 4.38212 162.926 6.61032 168.095 10.7591L170.916 7.24433C164.668 2.22904 156.021 -0.12481 145.281 -0.12481V4.38212ZM168.109 10.7704C173.204 14.7925 175.815 20.4471 175.815 28.0435H180.322C180.322 19.2647 177.225 12.2248 170.902 7.23302L168.109 10.7704ZM175.815 28.0435C175.815 34.2594 174.268 39.5977 171.236 44.1452L174.986 46.6452C178.565 41.2775 180.322 35.048 180.322 28.0435H175.815ZM171.223 44.1651C168.251 48.7268 163.978 52.332 158.306 54.9553L160.198 59.0459C166.545 56.1106 171.511 51.9789 174.999 46.6253L171.223 44.1651ZM158.297 54.9598C152.724 57.5698 146.041 58.916 138.182 58.916V63.423C146.549 63.423 153.912 61.9899 160.208 59.0413L158.297 54.9598ZM138.182 58.916H112.718V63.423H138.182V58.916ZM114.11 62.9414L128.307 51.7868L125.523 48.2429L111.326 59.3975L114.11 62.9414ZM124.705 49.5729L118.508 80.5581L122.928 81.4419L129.125 50.4568L124.705 49.5729ZM120.718 78.7465H94.1271V83.2535H120.718V78.7465ZM144.314 79.8919L128.089 51.1602L124.164 53.3764L140.389 82.1081L144.314 79.8919ZM126.126 54.5218H153.506V50.0148H126.126V54.5218ZM151.55 53.388L168.001 82.1197L171.912 79.8803L155.462 51.1486L151.55 53.388ZM169.956 78.7465H142.351V83.2535H169.956V78.7465ZM128.02 51.7885L118.668 39.7324L115.107 42.4948L124.458 54.5509L128.02 51.7885ZM116.887 43.3671H139.534V38.8602H116.887V43.3671ZM139.534 43.3671C143.569 43.3671 147.027 42.3765 149.595 40.0937L146.601 36.7252C145.112 38.048 142.862 38.8602 139.534 38.8602V43.3671ZM149.629 40.063C152.207 37.6758 153.393 34.4345 153.393 30.635H148.886C148.886 33.4457 148.045 35.3874 146.567 36.756L149.629 40.063ZM153.393 30.635C153.393 27.2933 152.308 24.4242 149.686 22.6757L147.186 26.4256C148.168 27.0808 148.886 28.2679 148.886 30.635H153.393ZM149.775 22.7385C147.524 21.0745 144.585 20.3817 141.225 20.3817V24.8887C144.024 24.8887 145.892 25.4729 147.096 26.3628L149.775 22.7385ZM141.225 20.3817H120.605V24.8887H141.225V20.3817ZM122.087 24.3328L136.284 11.9387L133.32 8.54357L119.123 20.9376L122.087 24.3328ZM132.592 9.80031L124.029 52.7289L128.449 53.6105L137.012 10.682L132.592 9.80031ZM223.602 31.4237V29.1703H221.755L221.392 30.9818L223.602 31.4237ZM258.756 31.4237L260.966 31.8657L261.505 29.1703H258.756V31.4237ZM254.925 50.5782V52.8317H256.773L257.135 51.0201L254.925 50.5782ZM219.771 50.5782L217.561 50.1363L217.022 52.8317H219.771V50.5782ZM219.433 60.9441L217.224 60.501L216.683 63.1976H219.433V60.9441ZM258.981 60.9441L261.19 61.3909L261.736 58.6907H258.981V60.9441ZM254.925 81V83.2535H256.769L257.134 81.4467L254.925 81ZM189.349 81L187.14 80.5581L186.601 83.2535H189.349V81ZM205.124 2.12866V-0.12481H203.276L202.914 1.68672L205.124 2.12866ZM269.235 2.12866L271.443 2.57537L271.99 -0.12481H269.235V2.12866ZM265.178 22.1845V24.438H267.022L267.387 22.6312L265.178 22.1845ZM227.208 22.1845V19.931H225.361L224.998 21.7413L227.208 22.1845ZM223.602 33.6772H258.756V29.1703H223.602V33.6772ZM256.546 30.9818L252.715 50.1363L257.135 51.0201L260.966 31.8657L256.546 30.9818ZM254.925 48.3247H219.771V52.8317H254.925V48.3247ZM221.981 51.0201L225.812 31.8657L221.392 30.9818L217.561 50.1363L221.981 51.0201ZM219.433 63.1976H258.981V58.6907H219.433V63.1976ZM256.773 60.4974L252.716 80.5533L257.134 81.4467L261.19 61.3909L256.773 60.4974ZM254.925 78.7465H189.349V83.2535H254.925V78.7465ZM191.559 81.4419L207.333 2.5706L202.914 1.68672L187.14 80.5581L191.559 81.4419ZM205.124 4.38212H269.235V-0.12481H205.124V4.38212ZM267.026 1.68194L262.97 21.7378L267.387 22.6312L271.443 2.57537L267.026 1.68194ZM265.178 19.931H227.208V24.438H265.178V19.931ZM224.998 21.7413L217.224 60.501L221.643 61.3873L229.417 22.6277L224.998 21.7413ZM294.344 81.7887L294.696 79.5628L294.696 79.5628L294.344 81.7887ZM282.626 78.9719L281.845 81.0856L281.872 81.0957L281.9 81.1051L282.626 78.9719ZM273.612 74.803L271.615 73.7586L270.622 75.6583L272.47 76.7453L273.612 74.803ZM283.866 55.1978L284.973 53.2351L282.947 52.0922L281.869 54.1535L283.866 55.1978ZM292.654 59.3667L291.845 61.47L291.877 61.4823L291.91 61.4937L292.654 59.3667ZM301.555 61.7329L301.157 63.9509L301.167 63.9526L301.555 61.7329ZM316.203 61.9582L315.681 59.766L315.669 59.7689L315.656 59.772L316.203 61.9582ZM319.696 60.3808L321.203 62.0558L321.211 62.0482L319.696 60.3808ZM318.907 54.9725L317.813 56.9423L317.813 56.9423L318.907 54.9725ZM313.499 52.9443L312.899 55.1167L312.909 55.1192L312.918 55.1217L313.499 52.9443ZM306.175 51.1416L305.614 53.324L305.65 53.3333L305.686 53.3414L306.175 51.1416ZM298.175 48.6628L297.358 50.763L297.384 50.7729L297.41 50.7823L298.175 48.6628ZM290.739 44.7192L289.417 46.5444L289.432 46.5549L289.446 46.5653L290.739 44.7192ZM285.443 38.7475L287.407 37.6427L287.407 37.6427L285.443 38.7475ZM288.147 14.2974L286.326 12.9701L286.319 12.9803L286.311 12.9905L288.147 14.2974ZM301.893 4.04411L302.739 6.13273L302.746 6.13004L302.753 6.1273L301.893 4.04411ZM339.639 2.12866L339.115 4.32049L339.134 4.32502L339.153 4.32922L339.639 2.12866ZM352.822 7.08629L354.842 8.08466L355.768 6.2113L353.969 5.14701L352.822 7.08629ZM343.244 26.4661L342.058 28.3821L344.166 29.6871L345.265 27.4645L343.244 26.4661ZM332.878 22.0718L332.301 24.25L332.311 24.2528L332.878 22.0718ZM315.189 21.3958L315.758 23.5763L315.801 23.5648L315.845 23.5516L315.189 21.3958ZM311.245 23.3112L309.722 21.6501L309.686 21.6832L309.652 21.7178L311.245 23.3112ZM312.034 28.9449L310.859 30.8678L310.899 30.8921L310.939 30.9148L312.034 28.9449ZM317.442 30.973L316.862 33.1504L316.896 33.1595L316.93 33.1676L317.442 30.973ZM324.766 32.7758L324.205 34.9583L324.241 34.9675L324.277 34.9756L324.766 32.7758ZM332.766 35.142L331.981 37.2544L332.017 37.2677L332.053 37.2798L332.766 35.142ZM340.202 38.8602L338.91 40.7063L338.931 40.721L338.952 40.7352L340.202 38.8602ZM345.611 44.7192L343.646 45.824L343.654 45.8374L343.662 45.8507L345.611 44.7192ZM342.794 68.8313L344.604 70.1734L344.609 70.166L344.615 70.1585L342.794 68.8313ZM328.935 79.0846L328.076 77.0013L328.066 77.0052L328.935 79.0846ZM307.752 80.5493C303.204 80.5493 298.853 80.2192 294.696 79.5628L293.993 84.0146C298.399 84.7103 302.986 85.0562 307.752 85.0562V80.5493ZM294.696 79.5628C290.521 78.9037 286.743 77.9929 283.352 76.8386L281.9 81.1051C285.57 82.3546 289.604 83.3216 293.993 84.0146L294.696 79.5628ZM283.407 76.8581C280.048 75.6168 277.17 74.2812 274.755 72.8606L272.47 76.7453C275.163 78.3293 278.293 79.773 281.845 81.0856L283.407 76.8581ZM275.609 75.8473L285.862 56.2421L281.869 54.1535L271.615 73.7586L275.609 75.8473ZM282.758 57.1605C285.777 58.8633 288.806 60.301 291.845 61.47L293.463 57.2635C290.643 56.1789 287.813 54.8374 284.973 53.2351L282.758 57.1605ZM291.91 61.4937C295.019 62.5821 298.102 63.4025 301.157 63.9509L301.953 59.5148C299.149 59.0116 296.298 58.2546 293.398 57.2398L291.91 61.4937ZM301.167 63.9526C304.294 64.4999 307.391 64.775 310.456 64.775V60.2681C307.662 60.2681 304.825 60.0174 301.944 59.5131L301.167 63.9526ZM310.456 64.775C312.887 64.775 315.003 64.581 316.749 64.1444L315.656 59.772C314.398 60.0866 312.683 60.2681 310.456 60.2681V64.775ZM316.725 64.1504C318.47 63.7349 320.052 63.0922 321.203 62.0558L318.188 58.7058C317.837 59.0215 317.09 59.4304 315.681 59.766L316.725 64.1504ZM321.211 62.0482C322.387 60.9797 323.189 59.5849 323.189 57.902H318.682C318.682 58.0218 318.657 58.2795 318.18 58.7133L321.211 62.0482ZM323.189 57.902C323.189 55.6411 321.83 54.0187 320.001 53.0026L317.813 56.9423C318.688 57.4285 318.682 57.7591 318.682 57.902H323.189ZM320.001 53.0026C318.428 52.1282 316.431 51.3941 314.079 50.767L312.918 55.1217C315.073 55.6964 316.682 56.3144 317.813 56.9423L320.001 53.0026ZM314.098 50.772C311.876 50.1591 309.397 49.5492 306.664 48.9418L305.686 53.3414C308.361 53.9358 310.765 54.5278 312.899 55.1167L314.098 50.772ZM306.736 48.9591C304.18 48.3018 301.581 47.497 298.94 46.5432L297.41 50.7823C300.177 51.7816 302.912 52.6292 305.614 53.324L306.736 48.9591ZM298.992 46.5625C296.447 45.5727 294.129 44.3416 292.031 42.8731L289.446 46.5653C291.855 48.2517 294.495 49.6496 297.358 50.763L298.992 46.5625ZM292.06 42.894C290.152 41.5124 288.604 39.7701 287.407 37.6427L283.479 39.8523C284.986 42.5323 286.968 44.7711 289.417 46.5444L292.06 42.894ZM287.407 37.6427C286.287 35.6514 285.668 33.1237 285.668 29.959H281.161C281.161 33.7049 281.895 37.0362 283.479 39.8523L287.407 37.6427ZM285.668 29.959C285.668 24.3668 287.128 19.6146 289.983 15.6042L286.311 12.9905C282.856 17.8438 281.161 23.5326 281.161 29.959H285.668ZM289.968 15.6246C292.912 11.5861 297.129 8.40545 302.739 6.13273L301.047 1.95548C294.79 4.49016 289.843 8.14498 286.326 12.9701L289.968 15.6246ZM302.753 6.1273C308.426 3.78688 315.257 2.57935 323.301 2.57935V-1.92758C314.82 -1.92758 307.379 -0.656295 301.034 1.96091L302.753 6.1273ZM323.301 2.57935C329.007 2.57935 334.275 3.16457 339.115 4.32049L340.162 -0.0631785C334.937 -1.31095 329.314 -1.92758 323.301 -1.92758V2.57935ZM339.153 4.32922C344.078 5.41555 348.239 6.99247 351.674 9.02557L353.969 5.14701C350.043 2.82339 345.415 1.09523 340.124 -0.0719073L339.153 4.32922ZM350.801 6.08791L341.224 25.4677L345.265 27.4645L354.842 8.08466L350.801 6.08791ZM344.43 24.5501C341.075 22.4729 337.41 20.9216 333.445 19.8909L332.311 24.2528C335.859 25.1751 339.104 26.5533 342.058 28.3821L344.43 24.5501ZM333.456 19.8937C329.586 18.8669 325.636 18.3536 321.611 18.3536V22.8606C325.248 22.8606 328.81 23.3238 332.301 24.25L333.456 19.8937ZM321.611 18.3536C318.919 18.3536 316.541 18.6288 314.533 19.24L315.845 23.5516C317.292 23.1112 319.195 22.8606 321.611 22.8606V18.3536ZM314.62 19.2153C312.689 19.7191 310.991 20.4875 309.722 21.6501L312.768 24.9724C313.302 24.4824 314.233 23.9739 315.758 23.5763L314.62 19.2153ZM309.652 21.7178C308.533 22.836 307.752 24.2413 307.752 25.9027H312.259C312.259 25.7614 312.304 25.439 312.839 24.9047L309.652 21.7178ZM307.752 25.9027C307.752 28.1361 309.078 29.7796 310.859 30.8678L313.209 27.0221C312.285 26.4577 312.259 26.0731 312.259 25.9027H307.752ZM310.939 30.9148C312.513 31.7891 314.51 32.5233 316.862 33.1504L318.023 28.7957C315.868 28.221 314.259 27.603 313.128 26.975L310.939 30.9148ZM316.93 33.1676C319.165 33.6889 321.589 34.2857 324.205 34.9583L325.327 30.5933C322.684 29.9138 320.227 29.3087 317.954 28.7785L316.93 33.1676ZM324.277 34.9756C326.88 35.5539 329.447 36.3133 331.981 37.2544L333.55 33.0295C330.826 32.0176 328.061 31.1995 325.255 30.576L324.277 34.9756ZM332.053 37.2798C334.559 38.1149 336.841 39.258 338.91 40.7063L341.494 37.0141C339.056 35.3075 336.381 33.9718 333.478 33.0041L332.053 37.2798ZM338.952 40.7352C340.905 42.0369 342.465 43.7238 343.646 45.824L347.575 43.6144C346.052 40.9072 344.007 38.6881 341.452 36.9852L338.952 40.7352ZM343.662 45.8507C344.765 47.7513 345.385 50.2268 345.385 53.395H349.892C349.892 49.6526 349.16 46.3442 347.559 43.5876L343.662 45.8507ZM345.385 53.395C345.385 58.8116 343.902 63.4848 340.973 67.504L344.615 70.1585C348.145 65.3142 349.892 59.6965 349.892 53.395H345.385ZM340.983 67.4892C338.042 71.4571 333.782 74.6475 328.076 77.0014L329.794 81.1677C336.106 78.564 341.086 74.9188 344.604 70.1734L340.983 67.4892ZM328.066 77.0052C322.471 79.3423 315.72 80.5493 307.752 80.5493V85.0562C316.16 85.0562 323.53 83.7844 329.803 81.1639L328.066 77.0052ZM396.001 31.4237V29.1703H394.154L393.791 30.9818L396.001 31.4237ZM431.155 31.4237L433.365 31.8657L433.904 29.1703H431.155V31.4237ZM427.324 50.5782V52.8317H429.172L429.534 51.0201L427.324 50.5782ZM392.17 50.5782L389.96 50.1363L389.421 52.8317H392.17V50.5782ZM391.832 60.9441L389.623 60.501L389.082 63.1976H391.832V60.9441ZM431.38 60.9441L433.589 61.3909L434.135 58.6907H431.38V60.9441ZM427.324 81V83.2535H429.168L429.533 81.4467L427.324 81ZM361.748 81L359.539 80.5581L359 83.2535H361.748V81ZM377.523 2.12866V-0.12481H375.675L375.313 1.68672L377.523 2.12866ZM441.634 2.12866L443.842 2.57537L444.389 -0.12481H441.634V2.12866ZM437.577 22.1845V24.438H439.421L439.786 22.6312L437.577 22.1845ZM399.607 22.1845V19.931H397.76L397.397 21.7413L399.607 22.1845ZM396.001 33.6772H431.155V29.1703H396.001V33.6772ZM428.945 30.9818L425.115 50.1363L429.534 51.0201L433.365 31.8657L428.945 30.9818ZM427.324 48.3247H392.17V52.8317H427.324V48.3247ZM394.38 51.0201L398.211 31.8657L393.791 30.9818L389.96 50.1363L394.38 51.0201ZM391.832 63.1976H431.38V58.6907H391.832V63.1976ZM429.172 60.4974L425.115 80.5533L429.533 81.4467L433.589 61.3909L429.172 60.4974ZM427.324 78.7465H361.748V83.2535H427.324V78.7465ZM363.958 81.4419L379.732 2.5706L375.313 1.68672L359.539 80.5581L363.958 81.4419ZM377.523 4.38212H441.634V-0.12481H377.523V4.38212ZM439.425 1.68194L435.369 21.7378L439.786 22.6312L443.842 2.57537L439.425 1.68194ZM437.577 19.931H399.607V24.438H437.577V19.931ZM397.397 21.7413L389.623 60.501L394.042 61.3873L401.816 22.6277L397.397 21.7413ZM448.828 81L446.618 80.5581L446.079 83.2535H448.828V81ZM464.602 2.12866V-0.12481H462.755L462.393 1.68672L464.602 2.12866ZM486.461 2.12866L488.378 0.944859L487.718 -0.12481H486.461V2.12866ZM516.094 50.1275V52.381H520.134L518.012 48.9437L516.094 50.1275ZM506.855 50.1275L504.645 49.6866L504.107 52.381H506.855V50.1275ZM516.432 2.12866V-0.12481H514.584L514.222 1.68771L516.432 2.12866ZM542.347 2.12866L544.557 2.5706L545.096 -0.12481H542.347V2.12866ZM526.573 81V83.2535H528.42L528.782 81.4419L526.573 81ZM504.714 81L502.797 82.1838L503.457 83.2535H504.714V81ZM475.081 33.0012V30.7477H471.041L473.163 34.185L475.081 33.0012ZM484.32 33.0012L486.53 33.4421L487.068 30.7477H484.32V33.0012ZM474.743 81V83.2535H476.591L476.953 81.4409L474.743 81ZM451.038 81.4419L466.812 2.5706L462.393 1.68672L446.618 80.5581L451.038 81.4419ZM464.602 4.38212H486.461V-0.12481H464.602V4.38212ZM484.543 3.31245L514.177 51.3113L518.012 48.9437L488.378 0.944859L484.543 3.31245ZM516.094 47.874H506.855V52.381H516.094V47.874ZM509.065 50.5684L518.642 2.5696L514.222 1.68771L504.645 49.6866L509.065 50.5684ZM516.432 4.38212H542.347V-0.12481H516.432V4.38212ZM540.137 1.68672L524.363 80.5581L528.782 81.4419L544.557 2.5706L540.137 1.68672ZM526.573 78.7465H504.714V83.2535H526.573V78.7465ZM506.632 79.8162L476.998 31.8174L473.163 34.185L502.797 82.1838L506.632 79.8162ZM475.081 35.2546H484.32V30.7477H475.081V35.2546ZM482.11 32.5602L472.533 80.5591L476.953 81.4409L486.53 33.4421L482.11 32.5602ZM474.743 78.7465H448.828V83.2535H474.743V78.7465ZM567.779 81L565.569 80.5597L565.032 83.2535H567.779V81ZM579.384 22.7479L581.594 23.1882L582.131 20.4944H579.384V22.7479ZM556.286 22.7479L554.077 22.3013L553.531 25.0013H556.286V22.7479ZM560.455 2.12866V-0.12481H558.611L558.246 1.68207L560.455 2.12866ZM633.242 2.12866L635.451 2.57524L635.996 -0.12481H633.242V2.12866ZM629.073 22.7479V25.0013H630.916L631.282 23.1945L629.073 22.7479ZM605.975 22.7479V20.4944H604.126L603.765 22.3076L605.975 22.7479ZM594.369 81V83.2535H596.218L596.58 81.4403L594.369 81ZM569.989 81.4403L581.594 23.1882L577.174 22.3076L565.569 80.5597L569.989 81.4403ZM579.384 20.4944H556.286V25.0013H579.384V20.4944ZM558.495 23.1945L562.664 2.57524L558.246 1.68207L554.077 22.3013L558.495 23.1945ZM560.455 4.38212H633.242V-0.12481H560.455V4.38212ZM631.033 1.68207L626.864 22.3013L631.282 23.1945L635.451 2.57524L631.033 1.68207ZM629.073 20.4944H605.975V25.0013H629.073V20.4944ZM603.765 22.3076L592.159 80.5597L596.58 81.4403L608.185 23.1882L603.765 22.3076ZM594.369 78.7465H567.779V83.2535H594.369V78.7465Z" fill="white" mask="url(#path-1-outside-1_107_2)"/>
</svg>
