<svg width="944" height="100" viewBox="2 -5 944 100" fill="none" xmlns="http://www.w3.org/2000/svg">
<mask id="path-1-outside-1_101_141" maskUnits="userSpaceOnUse" x="-3" y="-2" width="949" height="88" fill="black">
<rect fill="white" x="-3" y="-2" width="949" height="88"/>
<path d="M14.5065 81L21.3796 46.4093L24.3091 62.2962L0.535054 2.12866H27.2386L43.4636 43.4798H26.6753L59.9139 2.12866H86.6175L38.9567 62.2962L47.9705 46.4093L41.0975 81H14.5065ZM126.469 82.8028C118.281 82.8028 111.183 81.3005 105.173 78.2958C99.2392 75.2912 94.6196 71.1599 91.3146 65.9018C88.0846 60.5686 86.4696 54.4466 86.4696 47.536C86.4696 40.5503 87.6714 34.203 90.0751 28.4942C92.554 22.7103 96.0093 17.7151 100.441 13.5087C104.873 9.30219 110.131 6.07222 116.215 3.81876C122.3 1.49018 128.947 0.325886 136.159 0.325886C144.346 0.325886 151.407 1.8282 157.341 4.83282C163.35 7.83744 167.97 12.0064 171.2 17.3396C174.505 22.5976 176.158 28.682 176.158 35.5926C176.158 42.5784 174.918 48.9632 172.439 54.7471C170.036 60.4559 166.618 65.4135 162.186 69.62C157.754 73.8265 152.496 77.094 146.412 79.4226C140.327 81.676 133.68 82.8028 126.469 82.8028ZM128.722 61.2822C132.027 61.2822 134.919 60.6437 137.398 59.3667C139.952 58.0898 142.13 56.3245 143.933 54.0711C145.736 51.8176 147.088 49.2637 147.989 46.4093C148.891 43.4798 149.341 40.4 149.341 37.1701C149.341 34.0903 148.703 31.4237 147.426 29.1703C146.224 26.8417 144.459 25.0389 142.13 23.7619C139.877 22.485 137.135 21.8465 133.905 21.8465C130.675 21.8465 127.783 22.485 125.229 23.7619C122.675 25.0389 120.497 26.8041 118.694 29.0576C116.891 31.3111 115.539 33.9025 114.638 36.832C113.737 39.6864 113.286 42.7286 113.286 45.9586C113.286 48.9632 113.887 51.6298 115.089 53.9584C116.366 56.287 118.131 58.0898 120.384 59.3667C122.713 60.6437 125.492 61.2822 128.722 61.2822ZM228.625 82.8028C220.437 82.8028 213.602 81.2629 208.118 78.1832C202.635 75.0283 198.729 70.6716 196.4 65.1131C194.147 59.4794 193.771 52.9443 195.273 45.5079L203.949 2.12866H230.54L221.977 45.0572C221.451 47.8365 221.263 50.2402 221.414 52.2683C221.564 54.2964 222.052 55.9865 222.878 57.3386C223.78 58.6907 224.982 59.7047 226.484 60.3808C227.986 60.9817 229.789 61.2822 231.892 61.2822C234.446 61.2822 236.624 60.7564 238.427 59.7047C240.305 58.6531 241.845 56.9255 243.047 54.5218C244.324 52.1181 245.338 48.9632 246.089 45.0572L254.652 2.12866H280.792L271.891 46.6346C269.563 58.4278 264.793 67.4041 257.582 73.5636C250.371 79.723 240.718 82.8028 228.625 82.8028ZM288.474 81L304.249 2.12866H339.628C350.069 2.12866 358.144 4.41968 363.853 9.00173C369.562 13.5087 372.416 19.8559 372.416 28.0435C372.416 34.6537 370.764 40.4376 367.458 45.3952C364.228 50.3529 359.609 54.2213 353.6 57.0006C347.665 59.7799 340.642 61.1695 332.53 61.1695H307.066L321.262 50.0148L315.065 81H288.474ZM336.699 81L320.474 52.2683H347.853L364.304 81H336.699ZM320.586 53.1697L311.234 41.1136H333.882C337.562 41.1136 340.417 40.2123 342.445 38.4095C344.473 36.5316 345.487 33.9401 345.487 30.635C345.487 27.7806 344.586 25.7525 342.783 24.5507C341.055 23.2737 338.652 22.6352 335.572 22.6352H314.953L329.15 10.2411L320.586 53.1697ZM782.856 81L794.461 22.7479H771.363L775.532 2.12866H848.319L844.15 22.7479H821.052L809.447 81H782.856ZM894.012 82.8028C885.824 82.8028 878.726 81.3005 872.717 78.2958C866.782 75.2912 862.163 71.1599 858.858 65.9018C855.628 60.5686 854.013 54.4466 854.013 47.536C854.013 40.5503 855.215 34.203 857.618 28.4942C860.097 22.7103 863.552 17.7151 867.984 13.5087C872.416 9.30219 877.674 6.07222 883.758 3.81876C889.843 1.49018 896.491 0.325886 903.702 0.325886C911.889 0.325886 918.95 1.8282 924.884 4.83282C930.894 7.83744 935.513 12.0064 938.743 17.3396C942.048 22.5976 943.701 28.682 943.701 35.5926C943.701 42.5784 942.461 48.9632 939.982 54.7471C937.579 60.4559 934.161 65.4135 929.729 69.62C925.297 73.8265 920.039 77.094 913.955 79.4226C907.871 81.676 901.223 82.8028 894.012 82.8028ZM896.265 61.2822C899.57 61.2822 902.462 60.6437 904.941 59.3667C907.495 58.0898 909.673 56.3245 911.476 54.0711C913.279 51.8176 914.631 49.2637 915.532 46.4093C916.434 43.4798 916.884 40.4 916.884 37.1701C916.884 34.0903 916.246 31.4237 914.969 29.1703C913.767 26.8417 912.002 25.0389 909.673 23.7619C907.42 22.485 904.678 21.8465 901.448 21.8465C898.218 21.8465 895.326 22.485 892.772 23.7619C890.218 25.0389 888.04 26.8041 886.237 29.0576C884.435 31.3111 883.082 33.9025 882.181 36.832C881.28 39.6864 880.829 42.7286 880.829 45.9586C880.829 48.9632 881.43 51.6298 882.632 53.9584C883.909 56.287 885.674 58.0898 887.927 59.3667C890.256 60.6437 893.035 61.2822 896.265 61.2822Z"/>
<path d="M415.02 82.8028C410.363 82.8028 405.893 82.4648 401.612 81.7887C397.33 81.1127 393.424 80.1737 389.894 78.9719C386.438 77.6949 383.434 76.3053 380.88 74.803L391.133 55.1978C394.063 56.8503 396.992 58.24 399.922 59.3667C402.926 60.4183 405.893 61.207 408.823 61.7329C411.827 62.2587 414.794 62.5216 417.724 62.5216C420.053 62.5216 421.968 62.3338 423.47 61.9582C425.048 61.5826 426.212 61.0568 426.963 60.3808C427.789 59.6296 428.203 58.8034 428.203 57.902C428.203 56.7001 427.527 55.7236 426.174 54.9725C424.822 54.2213 423.02 53.5453 420.766 52.9443C418.588 52.3434 416.147 51.7425 413.442 51.1416C410.813 50.4655 408.147 49.6393 405.443 48.6628C402.738 47.6111 400.26 46.2966 398.006 44.7192C395.828 43.1418 394.063 41.1512 392.71 38.7475C391.358 36.3438 390.682 33.4143 390.682 29.959C390.682 23.9497 392.26 18.7292 395.415 14.2974C398.645 9.86556 403.227 6.4478 409.161 4.04411C415.17 1.56529 422.306 0.325886 430.569 0.325886C436.428 0.325886 441.874 0.92681 446.906 2.12866C452.014 3.25539 456.408 4.90793 460.089 7.08629L450.512 26.4661C447.357 24.5131 443.902 23.0483 440.146 22.0718C436.465 21.0953 432.71 20.6071 428.879 20.6071C426.325 20.6071 424.184 20.87 422.456 21.3958C420.729 21.8465 419.414 22.485 418.513 23.3112C417.686 24.1375 417.273 25.0013 417.273 25.9027C417.273 27.1046 417.949 28.1186 419.301 28.9449C420.653 29.6961 422.456 30.3721 424.71 30.973C426.963 31.4988 429.404 32.0998 432.033 32.7758C434.738 33.3767 437.404 34.1654 440.033 35.142C442.737 36.0433 445.216 37.2827 447.47 38.8602C449.723 40.3625 451.526 42.3155 452.878 44.7192C454.23 47.0478 454.906 49.9397 454.906 53.395C454.906 59.254 453.291 64.3995 450.061 68.8313C446.831 73.188 442.212 76.6057 436.202 79.0846C430.268 81.5634 423.207 82.8028 415.02 82.8028ZM503.269 31.4237H538.423L534.592 50.5782H499.438L503.269 31.4237ZM499.1 60.9441H538.648L534.592 81H469.016L484.79 2.12866H548.901L544.845 22.1845H506.874L499.1 60.9441ZM556.096 81L571.87 2.12866H598.461L586.855 60.3808H622.46L618.291 81H556.096ZM670.706 35.7053H705.409L701.353 55.7612H666.762L670.706 35.7053ZM663.494 81H636.904L652.678 2.12866H716.789L712.733 22.1845H675.212L663.494 81Z"/>
</mask>
<path d="M14.5065 81L21.3796 46.4093L24.3091 62.2962L0.535054 2.12866H27.2386L43.4636 43.4798H26.6753L59.9139 2.12866H86.6175L38.9567 62.2962L47.9705 46.4093L41.0975 81H14.5065ZM126.469 82.8028C118.281 82.8028 111.183 81.3005 105.173 78.2958C99.2392 75.2912 94.6196 71.1599 91.3146 65.9018C88.0846 60.5686 86.4696 54.4466 86.4696 47.536C86.4696 40.5503 87.6714 34.203 90.0751 28.4942C92.554 22.7103 96.0093 17.7151 100.441 13.5087C104.873 9.30219 110.131 6.07222 116.215 3.81876C122.3 1.49018 128.947 0.325886 136.159 0.325886C144.346 0.325886 151.407 1.8282 157.341 4.83282C163.35 7.83744 167.97 12.0064 171.2 17.3396C174.505 22.5976 176.158 28.682 176.158 35.5926C176.158 42.5784 174.918 48.9632 172.439 54.7471C170.036 60.4559 166.618 65.4135 162.186 69.62C157.754 73.8265 152.496 77.094 146.412 79.4226C140.327 81.676 133.68 82.8028 126.469 82.8028ZM128.722 61.2822C132.027 61.2822 134.919 60.6437 137.398 59.3667C139.952 58.0898 142.13 56.3245 143.933 54.0711C145.736 51.8176 147.088 49.2637 147.989 46.4093C148.891 43.4798 149.341 40.4 149.341 37.1701C149.341 34.0903 148.703 31.4237 147.426 29.1703C146.224 26.8417 144.459 25.0389 142.13 23.7619C139.877 22.485 137.135 21.8465 133.905 21.8465C130.675 21.8465 127.783 22.485 125.229 23.7619C122.675 25.0389 120.497 26.8041 118.694 29.0576C116.891 31.3111 115.539 33.9025 114.638 36.832C113.737 39.6864 113.286 42.7286 113.286 45.9586C113.286 48.9632 113.887 51.6298 115.089 53.9584C116.366 56.287 118.131 58.0898 120.384 59.3667C122.713 60.6437 125.492 61.2822 128.722 61.2822ZM228.625 82.8028C220.437 82.8028 213.602 81.2629 208.118 78.1832C202.635 75.0283 198.729 70.6716 196.4 65.1131C194.147 59.4794 193.771 52.9443 195.273 45.5079L203.949 2.12866H230.54L221.977 45.0572C221.451 47.8365 221.263 50.2402 221.414 52.2683C221.564 54.2964 222.052 55.9865 222.878 57.3386C223.78 58.6907 224.982 59.7047 226.484 60.3808C227.986 60.9817 229.789 61.2822 231.892 61.2822C234.446 61.2822 236.624 60.7564 238.427 59.7047C240.305 58.6531 241.845 56.9255 243.047 54.5218C244.324 52.1181 245.338 48.9632 246.089 45.0572L254.652 2.12866H280.792L271.891 46.6346C269.563 58.4278 264.793 67.4041 257.582 73.5636C250.371 79.723 240.718 82.8028 228.625 82.8028ZM288.474 81L304.249 2.12866H339.628C350.069 2.12866 358.144 4.41968 363.853 9.00173C369.562 13.5087 372.416 19.8559 372.416 28.0435C372.416 34.6537 370.764 40.4376 367.458 45.3952C364.228 50.3529 359.609 54.2213 353.6 57.0006C347.665 59.7799 340.642 61.1695 332.53 61.1695H307.066L321.262 50.0148L315.065 81H288.474ZM336.699 81L320.474 52.2683H347.853L364.304 81H336.699ZM320.586 53.1697L311.234 41.1136H333.882C337.562 41.1136 340.417 40.2123 342.445 38.4095C344.473 36.5316 345.487 33.9401 345.487 30.635C345.487 27.7806 344.586 25.7525 342.783 24.5507C341.055 23.2737 338.652 22.6352 335.572 22.6352H314.953L329.15 10.2411L320.586 53.1697ZM782.856 81L794.461 22.7479H771.363L775.532 2.12866H848.319L844.15 22.7479H821.052L809.447 81H782.856ZM894.012 82.8028C885.824 82.8028 878.726 81.3005 872.717 78.2958C866.782 75.2912 862.163 71.1599 858.858 65.9018C855.628 60.5686 854.013 54.4466 854.013 47.536C854.013 40.5503 855.215 34.203 857.618 28.4942C860.097 22.7103 863.552 17.7151 867.984 13.5087C872.416 9.30219 877.674 6.07222 883.758 3.81876C889.843 1.49018 896.491 0.325886 903.702 0.325886C911.889 0.325886 918.95 1.8282 924.884 4.83282C930.894 7.83744 935.513 12.0064 938.743 17.3396C942.048 22.5976 943.701 28.682 943.701 35.5926C943.701 42.5784 942.461 48.9632 939.982 54.7471C937.579 60.4559 934.161 65.4135 929.729 69.62C925.297 73.8265 920.039 77.094 913.955 79.4226C907.871 81.676 901.223 82.8028 894.012 82.8028ZM896.265 61.2822C899.57 61.2822 902.462 60.6437 904.941 59.3667C907.495 58.0898 909.673 56.3245 911.476 54.0711C913.279 51.8176 914.631 49.2637 915.532 46.4093C916.434 43.4798 916.884 40.4 916.884 37.1701C916.884 34.0903 916.246 31.4237 914.969 29.1703C913.767 26.8417 912.002 25.0389 909.673 23.7619C907.42 22.485 904.678 21.8465 901.448 21.8465C898.218 21.8465 895.326 22.485 892.772 23.7619C890.218 25.0389 888.04 26.8041 886.237 29.0576C884.435 31.3111 883.082 33.9025 882.181 36.832C881.28 39.6864 880.829 42.7286 880.829 45.9586C880.829 48.9632 881.43 51.6298 882.632 53.9584C883.909 56.287 885.674 58.0898 887.927 59.3667C890.256 60.6437 893.035 61.2822 896.265 61.2822Z" fill="white"/>
<path d="M14.5065 81L12.2963 80.5608L11.7613 83.2535H14.5065V81ZM21.3796 46.4093L23.5957 46.0006L19.1694 45.9701L21.3796 46.4093ZM24.3091 62.2962L22.2133 63.1243L26.5252 61.8876L24.3091 62.2962ZM0.535054 2.12866V-0.12481H-2.77837L-1.56074 2.95677L0.535054 2.12866ZM27.2386 2.12866L29.3364 1.30556L28.7752 -0.12481H27.2386V2.12866ZM43.4636 43.4798V45.7332H46.7685L45.5614 42.6567L43.4636 43.4798ZM26.6753 43.4798L24.9189 42.068L21.9727 45.7332H26.6753V43.4798ZM59.9139 2.12866V-0.12481H58.8341L58.1575 0.716846L59.9139 2.12866ZM86.6175 2.12866L88.3839 3.5279L91.2773 -0.12481H86.6175V2.12866ZM38.9567 62.2962L36.9967 61.1842L40.7231 63.6955L38.9567 62.2962ZM47.9705 46.4093L50.1808 46.8485L46.0106 45.2972L47.9705 46.4093ZM41.0975 81V83.2535H42.9472L43.3077 81.4392L41.0975 81ZM16.7168 81.4392L23.5899 46.8485L19.1694 45.9701L12.2963 80.5608L16.7168 81.4392ZM19.1635 46.8179L22.093 62.7049L26.5252 61.8876L23.5957 46.0006L19.1635 46.8179ZM26.4049 61.4681L2.63085 1.30054L-1.56074 2.95677L22.2133 63.1243L26.4049 61.4681ZM0.535054 4.38212H27.2386V-0.12481H0.535054V4.38212ZM25.1409 2.95176L41.3658 44.3029L45.5614 42.6567L29.3364 1.30556L25.1409 2.95176ZM43.4636 41.2263H26.6753V45.7332H43.4636V41.2263ZM28.4317 44.8916L61.6703 3.54047L58.1575 0.716846L24.9189 42.068L28.4317 44.8916ZM59.9139 4.38212H86.6175V-0.12481H59.9139V4.38212ZM84.8511 0.729415L37.1902 60.897L40.7231 63.6955L88.3839 3.5279L84.8511 0.729415ZM40.9166 63.4083L49.9305 47.5213L46.0106 45.2972L36.9967 61.1842L40.9166 63.4083ZM45.7603 45.9701L38.8872 80.5608L43.3077 81.4392L50.1808 46.8485L45.7603 45.9701ZM41.0975 78.7465H14.5065V83.2535H41.0975V78.7465ZM105.173 78.2958L104.155 80.3063L104.166 80.3114L105.173 78.2958ZM91.3146 65.9018L89.387 67.0691L89.3967 67.0852L89.4067 67.101L91.3146 65.9018ZM90.0751 28.4942L88.0039 27.6065L88.0011 27.6131L87.9983 27.6197L90.0751 28.4942ZM116.215 3.81876L116.998 5.93194L117.009 5.92771L117.021 5.92336L116.215 3.81876ZM157.341 4.83282L156.323 6.84329L156.333 6.84838L157.341 4.83282ZM171.2 17.3396L169.272 18.5069L169.282 18.5229L169.292 18.5388L171.2 17.3396ZM172.439 54.7471L170.368 53.8594L170.365 53.866L170.362 53.8726L172.439 54.7471ZM162.186 69.62L163.737 71.2544L163.737 71.2544L162.186 69.62ZM146.412 79.4226L147.194 81.5358L147.206 81.5315L147.217 81.5272L146.412 79.4226ZM137.398 59.3667L136.39 57.3512L136.378 57.3572L136.366 57.3634L137.398 59.3667ZM143.933 54.0711L142.173 52.6633L142.173 52.6633L143.933 54.0711ZM147.989 46.4093L150.138 47.0879L150.141 47.0799L150.143 47.072L147.989 46.4093ZM147.426 29.1703L145.423 30.2038L145.444 30.2429L145.465 30.2813L147.426 29.1703ZM142.13 23.7619L141.019 25.7225L141.033 25.7303L141.047 25.7378L142.13 23.7619ZM125.229 23.7619L126.237 25.7775L126.237 25.7775L125.229 23.7619ZM118.694 29.0576L120.454 30.4653L120.454 30.4653L118.694 29.0576ZM114.638 36.832L116.787 37.5106L116.789 37.5027L116.792 37.4948L114.638 36.832ZM115.089 53.9584L113.086 54.9919L113.099 55.0171L113.113 55.0419L115.089 53.9584ZM120.384 59.3667L119.273 61.3273L119.287 61.335L119.301 61.3426L120.384 59.3667ZM126.469 80.5493C118.556 80.5493 111.816 79.0979 106.181 76.2803L104.166 80.3114C110.549 83.503 118.007 85.0562 126.469 85.0562V80.5493ZM106.191 76.2854C100.595 73.4518 96.2944 69.5899 93.2224 64.7025L89.4067 67.101C92.9448 72.7299 97.8835 77.1306 104.155 80.3063L106.191 76.2854ZM93.2421 64.7344C90.2479 59.7906 88.7231 54.081 88.7231 47.536H84.2161C84.2161 54.8123 85.9213 61.3466 89.387 67.0691L93.2421 64.7344ZM88.7231 47.536C88.7231 40.8123 89.8789 34.7674 92.152 29.3687L87.9983 27.6197C85.464 33.6386 84.2161 40.2882 84.2161 47.536H88.7231ZM92.1464 29.3819C94.5082 23.8711 97.7896 19.1323 101.992 15.1431L98.8897 11.8742C94.2289 16.298 90.5997 21.5496 88.0039 27.6065L92.1464 29.3819ZM101.992 15.1431C106.19 11.1594 111.182 8.08614 116.998 5.93194L115.433 1.70557C109.08 4.0583 103.556 7.44499 98.8897 11.8742L101.992 15.1431ZM117.021 5.92336C122.822 3.70317 129.193 2.57935 136.159 2.57935V-1.92758C128.701 -1.92758 121.777 -0.722816 115.41 1.71416L117.021 5.92336ZM136.159 2.57935C144.073 2.57935 150.769 4.0311 156.323 6.84326L158.359 2.82237C152.045 -0.374711 144.62 -1.92758 136.159 -1.92758V2.57935ZM156.333 6.84838C161.993 9.67812 166.28 13.5659 169.272 18.5069L173.127 16.1722C169.66 10.4468 164.708 5.99676 158.349 2.81725L156.333 6.84838ZM169.292 18.5388C172.346 23.398 173.904 29.057 173.904 35.5926H178.411C178.411 28.3071 176.664 21.7973 173.108 16.1403L169.292 18.5388ZM173.904 35.5926C173.904 42.3069 172.714 48.3854 170.368 53.8594L174.511 55.6348C177.122 49.541 178.411 42.8499 178.411 35.5926H173.904ZM170.362 53.8726C168.078 59.2986 164.838 63.9964 160.635 67.9855L163.737 71.2544C168.398 66.8307 171.993 61.6132 174.516 55.6216L170.362 53.8726ZM160.635 67.9855C156.432 71.9744 151.432 75.0884 145.606 77.318L147.217 81.5272C153.56 79.0996 159.076 75.6785 163.737 71.2544L160.635 67.9855ZM145.629 77.3094C139.822 79.4603 133.442 80.5493 126.469 80.5493V85.0562C133.917 85.0562 140.833 83.8918 147.194 81.5358L145.629 77.3094ZM128.722 63.5356C132.32 63.5356 135.578 62.8392 138.43 61.37L136.366 57.3634C134.26 58.4481 131.734 59.0287 128.722 59.0287V63.5356ZM138.406 61.3823C141.255 59.9579 143.688 57.9841 145.693 55.4788L142.173 52.6633C140.572 54.665 138.649 56.2216 136.39 57.3512L138.406 61.3823ZM145.693 55.4788C147.675 53.0003 149.156 50.1972 150.138 47.0879L145.84 45.7307C145.019 48.3302 143.796 50.6349 142.173 52.6633L145.693 55.4788ZM150.143 47.072C151.114 43.9165 151.595 40.6125 151.595 37.1701H147.088C147.088 40.1875 146.667 43.0431 145.835 45.7466L150.143 47.072ZM151.595 37.1701C151.595 33.7747 150.889 30.7104 149.386 28.0593L145.465 30.2813C146.517 32.137 147.088 34.406 147.088 37.1701H151.595ZM149.428 28.1367C148.018 25.4039 145.93 23.2756 143.214 21.7861L141.047 25.7378C142.988 26.8022 144.43 28.2795 145.423 30.2038L149.428 28.1367ZM143.241 21.8014C140.575 20.2905 137.429 19.593 133.905 19.593V24.1C136.841 24.1 139.179 24.6795 141.019 25.7225L143.241 21.8014ZM133.905 19.593C130.372 19.593 127.127 20.2935 124.221 21.7464L126.237 25.7775C128.439 24.6764 130.979 24.1 133.905 24.1V19.593ZM124.221 21.7464C121.373 23.1708 118.939 25.1446 116.935 27.6499L120.454 30.4653C122.055 28.4637 123.978 26.907 126.237 25.7775L124.221 21.7464ZM116.935 27.6499C114.944 30.1381 113.464 32.9859 112.484 36.1693L116.792 37.4948C117.615 34.8192 118.839 32.484 120.454 30.4653L116.935 27.6499ZM112.489 36.1535C111.513 39.244 111.032 42.5166 111.032 45.9586H115.539C115.539 42.9407 115.96 40.1288 116.787 37.5106L112.489 36.1535ZM111.032 45.9586C111.032 49.2698 111.697 52.2998 113.086 54.9919L117.091 52.9249C116.077 50.9598 115.539 48.6566 115.539 45.9586H111.032ZM113.113 55.0419C114.586 57.7277 116.646 59.8385 119.273 61.3273L121.495 57.4062C119.616 56.341 118.146 54.8462 117.064 52.8749L113.113 55.0419ZM119.301 61.3426C122.026 62.8371 125.195 63.5356 128.722 63.5356V59.0287C125.79 59.0287 123.4 58.4502 121.468 57.3909L119.301 61.3426ZM208.118 78.1832L206.994 80.1364L207.004 80.1422L207.015 80.148L208.118 78.1832ZM196.4 65.1131L194.308 65.95L194.315 65.9669L194.322 65.9838L196.4 65.1131ZM195.273 45.5079L197.482 45.9541L197.483 45.9498L195.273 45.5079ZM203.949 2.12866V-0.12481H202.102L201.739 1.68672L203.949 2.12866ZM230.54 2.12866L232.75 2.56948L233.287 -0.12481H230.54V2.12866ZM221.977 45.0572L219.767 44.6164L219.765 44.6273L219.763 44.6383L221.977 45.0572ZM221.414 52.2683L223.661 52.1018L223.661 52.1018L221.414 52.2683ZM222.878 57.3386L220.955 58.5137L220.979 58.5516L221.003 58.5886L222.878 57.3386ZM226.484 60.3808L225.559 62.4358L225.603 62.4553L225.647 62.4731L226.484 60.3808ZM238.427 59.7047L237.326 57.7386L237.309 57.7483L237.292 57.7582L238.427 59.7047ZM243.047 54.5218L241.057 53.4645L241.044 53.4891L241.031 53.514L243.047 54.5218ZM246.089 45.0572L243.879 44.6164L243.878 44.624L243.876 44.6316L246.089 45.0572ZM254.652 2.12866V-0.12481H252.804L252.442 1.68783L254.652 2.12866ZM280.792 2.12866L283.002 2.5706L283.541 -0.12481H280.792V2.12866ZM271.891 46.6346L269.681 46.1927L269.68 46.1981L271.891 46.6346ZM257.582 73.5636L259.045 75.277L259.045 75.277L257.582 73.5636ZM228.625 80.5493C220.71 80.5493 214.281 79.0601 209.222 76.2184L207.015 80.148C212.922 83.4657 220.164 85.0562 228.625 85.0562V80.5493ZM209.242 76.2299C204.164 73.3084 200.606 69.3214 198.478 64.2424L194.322 65.9838C196.851 72.0218 201.105 76.7483 206.994 80.1364L209.242 76.2299ZM198.492 64.2761C196.438 59.1409 196.045 53.0682 197.482 45.9541L193.064 45.0617C191.497 52.8204 191.855 59.8179 194.308 65.95L198.492 64.2761ZM197.483 45.9498L206.159 2.5706L201.739 1.68672L193.064 45.066L197.483 45.9498ZM203.949 4.38212H230.54V-0.12481H203.949V4.38212ZM228.33 1.68783L219.767 44.6164L224.187 45.498L232.75 2.56948L228.33 1.68783ZM219.763 44.6383C219.213 47.5414 218.997 50.1514 219.166 52.4348L223.661 52.1018C223.53 50.329 223.689 48.1316 224.191 45.4761L219.763 44.6383ZM219.166 52.4348C219.336 54.7218 219.897 56.7817 220.955 58.5137L224.801 56.1635C224.207 55.1913 223.792 53.871 223.661 52.1018L219.166 52.4348ZM221.003 58.5886C222.143 60.298 223.676 61.5885 225.559 62.4358L227.409 58.3258C226.287 57.821 225.416 57.0833 224.753 56.0886L221.003 58.5886ZM225.647 62.4731C227.482 63.2071 229.584 63.5356 231.892 63.5356V59.0287C229.994 59.0287 228.49 58.7563 227.321 58.2885L225.647 62.4731ZM231.892 63.5356C234.756 63.5356 237.346 62.9444 239.563 61.6512L237.292 57.7582C235.903 58.5683 234.136 59.0287 231.892 59.0287V63.5356ZM239.528 61.6709C241.888 60.3494 243.709 58.2363 245.062 55.5295L241.031 53.514C239.981 55.6146 238.722 56.9569 237.326 57.7386L239.528 61.6709ZM245.037 55.579C246.456 52.9085 247.526 49.5174 248.302 45.4828L243.876 44.6316C243.15 48.4091 242.192 51.3276 241.057 53.4645L245.037 55.579ZM248.299 45.498L256.862 2.56948L252.442 1.68783L243.879 44.6164L248.299 45.498ZM254.652 4.38212H280.792V-0.12481H254.652V4.38212ZM278.583 1.68672L269.681 46.1927L274.101 47.0766L283.002 2.5706L278.583 1.68672ZM269.68 46.1981C267.423 57.629 262.85 66.0997 256.118 71.8501L259.045 75.277C266.735 68.7085 271.702 59.2265 274.102 47.0712L269.68 46.1981ZM256.118 71.8501C249.417 77.5739 240.333 80.5493 228.625 80.5493V85.0562C241.103 85.0562 251.324 81.8722 259.045 75.277L256.118 71.8501ZM288.474 81L286.265 80.5581L285.726 83.2535H288.474V81ZM304.249 2.12866V-0.12481H302.401L302.039 1.68672L304.249 2.12866ZM363.853 9.00173L362.442 10.7591L362.449 10.7648L362.457 10.7704L363.853 9.00173ZM367.458 45.3952L365.583 44.1452L365.577 44.1551L365.57 44.1651L367.458 45.3952ZM353.6 57.0006L352.654 54.9552L352.644 54.9598L353.6 57.0006ZM307.066 61.1695L305.673 59.3975L300.55 63.423H307.066V61.1695ZM321.262 50.0148L323.472 50.4568L324.669 44.4724L319.87 48.2429L321.262 50.0148ZM315.065 81V83.2535H316.913L317.275 81.4419L315.065 81ZM336.699 81L334.736 82.1081L335.383 83.2535H336.699V81ZM320.474 52.2683V50.0148H316.613L318.511 53.3764L320.474 52.2683ZM347.853 52.2683L349.809 51.1486L349.16 50.0148H347.853V52.2683ZM364.304 81V83.2535H368.19L366.259 79.8803L364.304 81ZM320.586 53.1697L318.806 54.5509L321.831 58.4506L322.796 53.6105L320.586 53.1697ZM311.234 41.1136V38.8602H306.634L309.454 42.4948L311.234 41.1136ZM342.445 38.4095L343.942 40.0937L343.959 40.0785L343.976 40.063L342.445 38.4095ZM342.783 24.5507L341.444 26.3628L341.488 26.3953L341.533 26.4256L342.783 24.5507ZM314.953 22.6352L313.471 20.9376L308.945 24.8887H314.953V22.6352ZM329.15 10.2411L331.359 10.682L332.654 4.18988L327.667 8.54357L329.15 10.2411ZM290.684 81.4419L306.458 2.5706L302.039 1.68672L286.265 80.5581L290.684 81.4419ZM304.249 4.38212H339.628V-0.12481H304.249V4.38212ZM339.628 4.38212C349.77 4.38212 357.273 6.61032 362.442 10.7591L365.263 7.24433C359.015 2.22904 350.368 -0.12481 339.628 -0.12481V4.38212ZM362.457 10.7704C367.551 14.7925 370.163 20.4471 370.163 28.0435H374.67C374.67 19.2647 371.572 12.2248 365.249 7.23302L362.457 10.7704ZM370.163 28.0435C370.163 34.2594 368.615 39.5977 365.583 44.1452L369.333 46.6452C372.912 41.2775 374.67 35.048 374.67 28.0435H370.163ZM365.57 44.1651C362.598 48.7268 358.326 52.332 352.654 54.9553L354.546 59.0459C360.892 56.1106 365.859 51.9789 369.347 46.6253L365.57 44.1651ZM352.644 54.9598C347.071 57.5698 340.389 58.916 332.53 58.916V63.423C340.896 63.423 348.26 61.9899 354.555 59.0413L352.644 54.9598ZM332.53 58.916H307.066V63.423H332.53V58.916ZM308.458 62.9414L322.655 51.7868L319.87 48.2429L305.673 59.3975L308.458 62.9414ZM319.053 49.5729L312.856 80.5581L317.275 81.4419L323.472 50.4568L319.053 49.5729ZM315.065 78.7465H288.474V83.2535H315.065V78.7465ZM338.661 79.8919L322.436 51.1602L318.511 53.3764L334.736 82.1081L338.661 79.8919ZM320.474 54.5218H347.853V50.0148H320.474V54.5218ZM345.898 53.388L362.348 82.1197L366.259 79.8803L349.809 51.1486L345.898 53.388ZM364.304 78.7465H336.699V83.2535H364.304V78.7465ZM322.367 51.7885L313.015 39.7324L309.454 42.4948L318.806 54.5509L322.367 51.7885ZM311.234 43.3671H333.882V38.8602H311.234V43.3671ZM333.882 43.3671C337.916 43.3671 341.374 42.3765 343.942 40.0937L340.948 36.7252C339.46 38.048 337.209 38.8602 333.882 38.8602V43.3671ZM343.976 40.063C346.554 37.6758 347.741 34.4345 347.741 30.635H343.234C343.234 33.4457 342.392 35.3874 340.914 36.756L343.976 40.063ZM347.741 30.635C347.741 27.2933 346.656 24.4242 344.033 22.6757L341.533 26.4256C342.516 27.0808 343.234 28.2679 343.234 30.635H347.741ZM344.122 22.7385C341.871 21.0745 338.932 20.3817 335.572 20.3817V24.8887C338.371 24.8887 340.239 25.4729 341.444 26.3628L344.122 22.7385ZM335.572 20.3817H314.953V24.8887H335.572V20.3817ZM316.435 24.3328L330.632 11.9387L327.667 8.54357L313.471 20.9376L316.435 24.3328ZM326.94 9.80031L318.376 52.7289L322.796 53.6105L331.359 10.682L326.94 9.80031ZM401.612 81.7887L401.963 79.5628L401.963 79.5628L401.612 81.7887ZM389.894 78.9719L389.112 81.0856L389.14 81.0957L389.167 81.1051L389.894 78.9719ZM380.88 74.803L378.883 73.7586L377.889 75.6583L379.737 76.7453L380.88 74.803ZM391.133 55.1978L392.24 53.2351L390.214 52.0922L389.136 54.1535L391.133 55.1978ZM399.922 59.3667L399.113 61.47L399.145 61.4823L399.177 61.4937L399.922 59.3667ZM408.823 61.7329L408.425 63.9509L408.434 63.9526L408.823 61.7329ZM423.47 61.9582L422.948 59.766L422.936 59.7689L422.924 59.772L423.47 61.9582ZM426.963 60.3808L428.471 62.0558L428.479 62.0482L426.963 60.3808ZM426.174 54.9725L425.08 56.9423L425.08 56.9423L426.174 54.9725ZM420.766 52.9443L420.167 55.1167L420.176 55.1192L420.185 55.1217L420.766 52.9443ZM413.442 51.1416L412.881 53.324L412.917 53.3333L412.954 53.3414L413.442 51.1416ZM405.443 48.6628L404.626 50.763L404.651 50.7729L404.677 50.7823L405.443 48.6628ZM398.006 44.7192L396.684 46.5444L396.699 46.5549L396.714 46.5653L398.006 44.7192ZM392.71 38.7475L394.675 37.6427L394.675 37.6427L392.71 38.7475ZM395.415 14.2974L393.594 12.9701L393.586 12.9803L393.579 12.9905L395.415 14.2974ZM409.161 4.04411L410.007 6.13273L410.013 6.13004L410.02 6.1273L409.161 4.04411ZM446.906 2.12866L446.383 4.32049L446.402 4.32502L446.421 4.32922L446.906 2.12866ZM460.089 7.08629L462.109 8.08466L463.035 6.2113L461.237 5.14701L460.089 7.08629ZM450.512 26.4661L449.326 28.3821L451.434 29.6871L452.532 27.4645L450.512 26.4661ZM440.146 22.0718L439.568 24.25L439.579 24.2528L440.146 22.0718ZM422.456 21.3958L423.025 23.5763L423.069 23.5648L423.112 23.5516L422.456 21.3958ZM418.513 23.3112L416.99 21.6501L416.954 21.6832L416.919 21.7178L418.513 23.3112ZM419.301 28.9449L418.126 30.8678L418.166 30.8921L418.207 30.9148L419.301 28.9449ZM424.71 30.973L424.129 33.1504L424.163 33.1595L424.198 33.1676L424.71 30.973ZM432.033 32.7758L431.472 34.9583L431.508 34.9675L431.545 34.9756L432.033 32.7758ZM440.033 35.142L439.249 37.2544L439.284 37.2677L439.321 37.2798L440.033 35.142ZM447.47 38.8602L446.177 40.7063L446.198 40.721L446.22 40.7352L447.47 38.8602ZM452.878 44.7192L450.914 45.824L450.922 45.8374L450.929 45.8507L452.878 44.7192ZM450.061 68.8313L451.871 70.1734L451.877 70.166L451.882 70.1585L450.061 68.8313ZM436.202 79.0846L435.343 77.0013L435.334 77.0052L436.202 79.0846ZM415.02 80.5493C410.472 80.5493 406.12 80.2192 401.963 79.5628L401.26 84.0146C405.666 84.7103 410.254 85.0562 415.02 85.0562V80.5493ZM401.963 79.5628C397.789 78.9037 394.011 77.9929 390.62 76.8386L389.167 81.1051C392.838 82.3546 396.871 83.3216 401.26 84.0146L401.963 79.5628ZM390.675 76.8581C387.316 75.6168 384.437 74.2812 382.022 72.8606L379.737 76.7453C382.43 78.3293 385.561 79.773 389.112 81.0856L390.675 76.8581ZM382.877 75.8473L393.13 56.2421L389.136 54.1535L378.883 73.7586L382.877 75.8473ZM390.026 57.1605C393.044 58.8633 396.073 60.301 399.113 61.47L400.731 57.2635C397.911 56.1789 395.081 54.8374 392.24 53.2351L390.026 57.1605ZM399.177 61.4937C402.287 62.5821 405.37 63.4025 408.425 63.9509L409.221 59.5148C406.417 59.0116 403.566 58.2546 400.666 57.2398L399.177 61.4937ZM408.434 63.9526C411.562 64.4999 414.659 64.775 417.724 64.775V60.2681C414.93 60.2681 412.093 60.0174 409.211 59.5131L408.434 63.9526ZM417.724 64.775C420.154 64.775 422.27 64.581 424.017 64.1444L422.924 59.772C421.666 60.0866 419.951 60.2681 417.724 60.2681V64.775ZM423.992 64.1504C425.737 63.7349 427.319 63.0922 428.471 62.0558L425.456 58.7058C425.105 59.0215 424.358 59.4304 422.948 59.766L423.992 64.1504ZM428.479 62.0482C429.654 60.9797 430.456 59.5849 430.456 57.902H425.949C425.949 58.0218 425.925 58.2795 425.447 58.7133L428.479 62.0482ZM430.456 57.902C430.456 55.6411 429.098 54.0187 427.269 53.0026L425.08 56.9423C425.955 57.4285 425.949 57.7591 425.949 57.902H430.456ZM427.269 53.0026C425.695 52.1282 423.699 51.3941 421.347 50.767L420.185 55.1217C422.341 55.6964 423.95 56.3144 425.08 56.9423L427.269 53.0026ZM421.365 50.772C419.143 50.1591 416.664 49.5492 413.931 48.9418L412.954 53.3414C415.629 53.9358 418.032 54.5278 420.167 55.1167L421.365 50.772ZM414.004 48.9591C411.447 48.3018 408.849 47.497 406.208 46.5432L404.677 50.7823C407.444 51.7816 410.179 52.6292 412.881 53.324L414.004 48.9591ZM406.259 46.5625C403.714 45.5727 401.396 44.3416 399.298 42.8731L396.714 46.5653C399.123 48.2517 401.763 49.6496 404.626 50.763L406.259 46.5625ZM399.328 42.894C397.42 41.5124 395.871 39.7701 394.675 37.6427L390.746 39.8523C392.254 42.5323 394.236 44.7711 396.684 46.5444L399.328 42.894ZM394.675 37.6427C393.554 35.6514 392.936 33.1237 392.936 29.959H388.429C388.429 33.7049 389.162 37.0362 390.746 39.8523L394.675 37.6427ZM392.936 29.959C392.936 24.3668 394.396 19.6146 397.25 15.6042L393.579 12.9905C390.124 17.8438 388.429 23.5326 388.429 29.959H392.936ZM397.236 15.6246C400.179 11.5861 404.396 8.40545 410.007 6.13273L408.315 1.95548C402.057 4.49016 397.11 8.14498 393.594 12.9701L397.236 15.6246ZM410.02 6.1273C415.694 3.78688 422.524 2.57935 430.569 2.57935V-1.92758C422.088 -1.92758 414.646 -0.656295 408.301 1.96091L410.02 6.1273ZM430.569 2.57935C436.274 2.57935 441.542 3.16457 446.383 4.32049L447.43 -0.0631785C442.205 -1.31095 436.581 -1.92758 430.569 -1.92758V2.57935ZM446.421 4.32922C451.346 5.41555 455.506 6.99247 458.941 9.02557L461.237 5.14701C457.311 2.82339 452.683 1.09523 447.392 -0.0719073L446.421 4.32922ZM458.069 6.08791L448.492 25.4677L452.532 27.4645L462.109 8.08466L458.069 6.08791ZM451.698 24.5501C448.343 22.4729 444.677 20.9216 440.713 19.8909L439.579 24.2528C443.126 25.1751 446.371 26.5533 449.326 28.3821L451.698 24.5501ZM440.724 19.8937C436.853 18.8669 432.903 18.3536 428.879 18.3536V22.8606C432.516 22.8606 436.077 23.3238 439.568 24.25L440.724 19.8937ZM428.879 18.3536C426.187 18.3536 423.808 18.6288 421.8 19.24L423.112 23.5516C424.56 23.1112 426.463 22.8606 428.879 22.8606V18.3536ZM421.887 19.2153C419.956 19.7191 418.258 20.4875 416.99 21.6501L420.035 24.9724C420.57 24.4824 421.501 23.9739 423.025 23.5763L421.887 19.2153ZM416.919 21.7178C415.801 22.836 415.02 24.2413 415.02 25.9027H419.527C419.527 25.7614 419.572 25.439 420.106 24.9047L416.919 21.7178ZM415.02 25.9027C415.02 28.1361 416.346 29.7796 418.126 30.8678L420.476 27.0221C419.553 26.4577 419.527 26.0731 419.527 25.9027H415.02ZM418.207 30.9148C419.781 31.7891 421.777 32.5233 424.129 33.1504L425.29 28.7957C423.135 28.221 421.526 27.603 420.396 26.975L418.207 30.9148ZM424.198 33.1676C426.432 33.6889 428.857 34.2857 431.472 34.9583L432.595 30.5933C429.952 29.9138 427.494 29.3087 425.222 28.7785L424.198 33.1676ZM431.545 34.9756C434.147 35.5539 436.715 36.3133 439.249 37.2544L440.818 33.0295C438.094 32.0176 435.328 31.1995 432.522 30.576L431.545 34.9756ZM439.321 37.2798C441.826 38.1149 444.108 39.258 446.177 40.7063L448.762 37.0141C446.324 35.3075 443.649 33.9718 440.746 33.0041L439.321 37.2798ZM446.22 40.7352C448.172 42.0369 449.733 43.7238 450.914 45.824L454.842 43.6144C453.319 40.9072 451.274 38.6881 448.72 36.9852L446.22 40.7352ZM450.929 45.8507C452.033 47.7513 452.653 50.2268 452.653 53.395H457.16C457.16 49.6526 456.427 46.3442 454.827 43.5876L450.929 45.8507ZM452.653 53.395C452.653 58.8116 451.169 63.4848 448.24 67.504L451.882 70.1585C455.413 65.3142 457.16 59.6965 457.16 53.395H452.653ZM448.251 67.4892C445.309 71.4571 441.049 74.6475 435.343 77.0014L437.062 81.1677C443.374 78.564 448.353 74.9188 451.871 70.1734L448.251 67.4892ZM435.334 77.0052C429.739 79.3423 422.987 80.5493 415.02 80.5493V85.0562C423.427 85.0562 430.798 83.7844 437.071 81.1639L435.334 77.0052ZM503.269 31.4237V29.1703H501.421L501.059 30.9818L503.269 31.4237ZM538.423 31.4237L540.632 31.8657L541.171 29.1703H538.423V31.4237ZM534.592 50.5782V52.8317H536.439L536.801 51.0201L534.592 50.5782ZM499.438 50.5782L497.228 50.1363L496.689 52.8317H499.438V50.5782ZM499.1 60.9441L496.89 60.501L496.349 63.1976H499.1V60.9441ZM538.648 60.9441L540.857 61.3909L541.403 58.6907H538.648V60.9441ZM534.592 81V83.2535H536.435L536.8 81.4467L534.592 81ZM469.016 81L466.806 80.5581L466.267 83.2535H469.016V81ZM484.79 2.12866V-0.12481H482.943L482.58 1.68672L484.79 2.12866ZM548.901 2.12866L551.11 2.57537L551.656 -0.12481H548.901V2.12866ZM544.845 22.1845V24.438H546.688L547.054 22.6312L544.845 22.1845ZM506.874 22.1845V19.931H505.028L504.665 21.7413L506.874 22.1845ZM503.269 33.6772H538.423V29.1703H503.269V33.6772ZM536.213 30.9818L532.382 50.1363L536.801 51.0201L540.632 31.8657L536.213 30.9818ZM534.592 48.3247H499.438V52.8317H534.592V48.3247ZM501.647 51.0201L505.478 31.8657L501.059 30.9818L497.228 50.1363L501.647 51.0201ZM499.1 63.1976H538.648V58.6907H499.1V63.1976ZM536.439 60.4974L532.383 80.5533L536.8 81.4467L540.857 61.3909L536.439 60.4974ZM534.592 78.7465H469.016V83.2535H534.592V78.7465ZM471.226 81.4419L487 2.5706L482.58 1.68672L466.806 80.5581L471.226 81.4419ZM484.79 4.38212H548.901V-0.12481H484.79V4.38212ZM546.692 1.68194L542.636 21.7378L547.054 22.6312L551.11 2.57537L546.692 1.68194ZM544.845 19.931H506.874V24.438H544.845V19.931ZM504.665 21.7413L496.89 60.501L501.309 61.3873L509.084 22.6277L504.665 21.7413ZM556.096 81L553.886 80.5581L553.347 83.2535H556.096V81ZM571.87 2.12866V-0.12481H570.022L569.66 1.68672L571.87 2.12866ZM598.461 2.12866L600.671 2.56895L601.207 -0.12481H598.461V2.12866ZM586.855 60.3808L584.645 59.9405L584.109 62.6342H586.855V60.3808ZM622.46 60.3808L624.669 60.8274L625.215 58.1273H622.46V60.3808ZM618.291 81V83.2535H620.135L620.5 81.4466L618.291 81ZM558.305 81.4419L574.08 2.5706L569.66 1.68672L553.886 80.5581L558.305 81.4419ZM571.87 4.38212H598.461V-0.12481H571.87V4.38212ZM596.251 1.68836L584.645 59.9405L589.065 60.8211L600.671 2.56895L596.251 1.68836ZM586.855 62.6342H622.46V58.1273H586.855V62.6342ZM620.251 59.9342L616.082 80.5534L620.5 81.4466L624.669 60.8274L620.251 59.9342ZM618.291 78.7465H556.096V83.2535H618.291V78.7465ZM670.706 35.7053V33.4518H668.852L668.494 35.2705L670.706 35.7053ZM705.409 35.7053L707.618 36.152L708.164 33.4518H705.409V35.7053ZM701.353 55.7612V58.0146H703.196L703.561 56.2079L701.353 55.7612ZM666.762 55.7612L664.551 55.3264L664.022 58.0146H666.762V55.7612ZM663.494 81V83.2535H665.343L665.704 81.4403L663.494 81ZM636.904 81L634.694 80.5581L634.155 83.2535H636.904V81ZM652.678 2.12866V-0.12481H650.83L650.468 1.68672L652.678 2.12866ZM716.789 2.12866L718.998 2.57537L719.544 -0.12481H716.789V2.12866ZM712.733 22.1845V24.438H714.576L714.941 22.6312L712.733 22.1845ZM675.212 22.1845V19.931H673.364L673.002 21.7442L675.212 22.1845ZM670.706 37.9588H705.409V33.4518H670.706V37.9588ZM703.2 35.2586L699.144 55.3145L703.561 56.2079L707.618 36.152L703.2 35.2586ZM701.353 53.5077H666.762V58.0146H701.353V53.5077ZM668.973 56.1959L672.917 36.1401L668.494 35.2705L664.551 55.3264L668.973 56.1959ZM663.494 78.7465H636.904V83.2535H663.494V78.7465ZM639.113 81.4419L654.887 2.5706L650.468 1.68672L634.694 80.5581L639.113 81.4419ZM652.678 4.38212H716.789V-0.12481H652.678V4.38212ZM714.58 1.68194L710.524 21.7378L714.941 22.6312L718.998 2.57537L714.58 1.68194ZM712.733 19.931H675.212V24.438H712.733V19.931ZM673.002 21.7442L661.284 80.5597L665.704 81.4403L677.422 22.6248L673.002 21.7442ZM782.856 81L780.646 80.5597L780.109 83.2535H782.856V81ZM794.461 22.7479L796.671 23.1882L797.208 20.4944H794.461V22.7479ZM771.363 22.7479L769.155 22.3013L768.609 25.0013H771.363V22.7479ZM775.532 2.12866V-0.12481H773.689L773.323 1.68207L775.532 2.12866ZM848.319 2.12866L850.528 2.57524L851.074 -0.12481H848.319V2.12866ZM844.15 22.7479V25.0013H845.994L846.359 23.1945L844.15 22.7479ZM821.052 22.7479V20.4944H819.203L818.842 22.3076L821.052 22.7479ZM809.447 81V83.2535H811.296L811.657 81.4403L809.447 81ZM785.066 81.4403L796.671 23.1882L792.251 22.3076L780.646 80.5597L785.066 81.4403ZM794.461 20.4944H771.363V25.0013H794.461V20.4944ZM773.572 23.1945L777.741 2.57524L773.323 1.68207L769.155 22.3013L773.572 23.1945ZM775.532 4.38212H848.319V-0.12481H775.532V4.38212ZM846.11 1.68207L841.941 22.3013L846.359 23.1945L850.528 2.57524L846.11 1.68207ZM844.15 20.4944H821.052V25.0013H844.15V20.4944ZM818.842 22.3076L807.237 80.5597L811.657 81.4403L823.262 23.1882L818.842 22.3076ZM809.447 78.7465H782.856V83.2535H809.447V78.7465ZM872.717 78.2958L871.699 80.3063L871.709 80.3114L872.717 78.2958ZM858.858 65.9018L856.93 67.0691L856.94 67.0852L856.95 67.101L858.858 65.9018ZM857.618 28.4942L855.547 27.6065L855.544 27.6131L855.541 27.6197L857.618 28.4942ZM883.758 3.81876L884.541 5.93194L884.553 5.92771L884.564 5.92336L883.758 3.81876ZM924.884 4.83282L923.866 6.84329L923.876 6.84838L924.884 4.83282ZM938.743 17.3396L936.816 18.5069L936.825 18.5229L936.835 18.5388L938.743 17.3396ZM939.982 54.7471L937.911 53.8594L937.908 53.866L937.906 53.8726L939.982 54.7471ZM929.729 69.62L931.281 71.2544L931.281 71.2544L929.729 69.62ZM913.955 79.4226L914.738 81.5358L914.749 81.5315L914.76 81.5272L913.955 79.4226ZM904.941 59.3667L903.933 57.3512L903.921 57.3572L903.909 57.3634L904.941 59.3667ZM911.476 54.0711L909.716 52.6633L909.716 52.6633L911.476 54.0711ZM915.532 46.4093L917.681 47.0879L917.684 47.0799L917.686 47.072L915.532 46.4093ZM914.969 29.1703L912.967 30.2038L912.987 30.2429L913.008 30.2813L914.969 29.1703ZM909.673 23.7619L908.562 25.7225L908.576 25.7303L908.59 25.7378L909.673 23.7619ZM892.772 23.7619L893.78 25.7775L893.78 25.7775L892.772 23.7619ZM886.237 29.0576L887.997 30.4653L887.997 30.4653L886.237 29.0576ZM882.181 36.832L884.33 37.5106L884.332 37.5027L884.335 37.4948L882.181 36.832ZM882.632 53.9584L880.629 54.9919L880.642 55.0171L880.656 55.0419L882.632 53.9584ZM887.927 59.3667L886.816 61.3273L886.83 61.335L886.844 61.3426L887.927 59.3667ZM894.012 80.5493C886.099 80.5493 879.36 79.0979 873.724 76.2803L871.709 80.3114C878.092 83.503 885.55 85.0562 894.012 85.0562V80.5493ZM873.734 76.2854C868.138 73.4518 863.838 69.5899 860.766 64.7025L856.95 67.101C860.488 72.7299 865.427 77.1306 871.699 80.3063L873.734 76.2854ZM860.785 64.7344C857.791 59.7906 856.266 54.081 856.266 47.536H851.759C851.759 54.8123 853.464 61.3466 856.93 67.0691L860.785 64.7344ZM856.266 47.536C856.266 40.8123 857.422 34.7674 859.695 29.3687L855.541 27.6197C853.007 33.6386 851.759 40.2882 851.759 47.536H856.266ZM859.69 29.3819C862.051 23.8711 865.333 19.1323 869.536 15.1431L866.433 11.8742C861.772 16.298 858.143 21.5496 855.547 27.6065L859.69 29.3819ZM869.536 15.1431C873.733 11.1594 878.725 8.08614 884.541 5.93194L882.976 1.70557C876.623 4.0583 871.099 7.44499 866.433 11.8742L869.536 15.1431ZM884.564 5.92336C890.365 3.70317 896.737 2.57935 903.702 2.57935V-1.92758C896.245 -1.92758 889.321 -0.722816 882.953 1.71416L884.564 5.92336ZM903.702 2.57935C911.616 2.57935 918.312 4.0311 923.866 6.84326L925.902 2.82237C919.588 -0.374711 912.163 -1.92758 903.702 -1.92758V2.57935ZM923.876 6.84838C929.536 9.67812 933.823 13.5659 936.816 18.5069L940.671 16.1722C937.203 10.4468 932.251 5.99676 925.892 2.81725L923.876 6.84838ZM936.835 18.5388C939.89 23.398 941.447 29.057 941.447 35.5926H945.954C945.954 28.3071 944.207 21.7973 940.651 16.1403L936.835 18.5388ZM941.447 35.5926C941.447 42.3069 940.257 48.3854 937.911 53.8594L942.054 55.6348C944.665 49.541 945.954 42.8499 945.954 35.5926H941.447ZM937.906 53.8726C935.621 59.2986 932.381 63.9964 928.178 67.9855L931.281 71.2544C935.941 66.8307 939.537 61.6132 942.059 55.6216L937.906 53.8726ZM928.178 67.9855C923.975 71.9744 918.975 75.0884 913.149 77.318L914.76 81.5272C921.103 79.0996 926.62 75.6785 931.281 71.2544L928.178 67.9855ZM913.172 77.3094C907.365 79.4603 900.985 80.5493 894.012 80.5493V85.0562C901.46 85.0562 908.376 83.8918 914.738 81.5358L913.172 77.3094ZM896.265 63.5356C899.863 63.5356 903.121 62.8392 905.973 61.37L903.909 57.3634C901.804 58.4481 899.278 59.0287 896.265 59.0287V63.5356ZM905.949 61.3823C908.798 59.9579 911.232 57.9841 913.236 55.4788L909.716 52.6633C908.115 54.665 906.192 56.2216 903.933 57.3512L905.949 61.3823ZM913.236 55.4788C915.219 53.0003 916.699 50.1972 917.681 47.0879L913.384 45.7307C912.563 48.3302 911.339 50.6349 909.716 52.6633L913.236 55.4788ZM917.686 47.072C918.657 43.9165 919.138 40.6125 919.138 37.1701H914.631C914.631 40.1875 914.21 43.0431 913.379 45.7466L917.686 47.072ZM919.138 37.1701C919.138 33.7747 918.432 30.7104 916.93 28.0593L913.008 30.2813C914.06 32.137 914.631 34.406 914.631 37.1701H919.138ZM916.971 28.1367C915.561 25.4039 913.473 23.2756 910.757 21.7861L908.59 25.7378C910.531 26.8022 911.973 28.2795 912.967 30.2038L916.971 28.1367ZM910.784 21.8014C908.118 20.2905 904.973 19.593 901.448 19.593V24.1C904.384 24.1 906.722 24.6795 908.562 25.7225L910.784 21.8014ZM901.448 19.593C897.915 19.593 894.67 20.2935 891.765 21.7464L893.78 25.7775C895.982 24.6764 898.522 24.1 901.448 24.1V19.593ZM891.765 21.7464C888.916 23.1708 886.482 25.1446 884.478 27.6499L887.997 30.4653C889.598 28.4637 891.521 26.907 893.78 25.7775L891.765 21.7464ZM884.478 27.6499C882.487 30.1381 881.007 32.9859 880.027 36.1693L884.335 37.4948C885.158 34.8192 886.382 32.484 887.997 30.4653L884.478 27.6499ZM880.032 36.1535C879.056 39.244 878.576 42.5166 878.576 45.9586H883.082C883.082 42.9407 883.503 40.1288 884.33 37.5106L880.032 36.1535ZM878.576 45.9586C878.576 49.2698 879.24 52.2998 880.629 54.9919L884.634 52.9249C883.62 50.9598 883.082 48.6566 883.082 45.9586H878.576ZM880.656 55.0419C882.129 57.7277 884.189 59.8385 886.816 61.3273L889.038 57.4062C887.159 56.341 885.689 54.8462 884.608 52.8749L880.656 55.0419ZM886.844 61.3426C889.569 62.8371 892.738 63.5356 896.265 63.5356V59.0287C893.333 59.0287 890.943 58.4502 889.011 57.3909L886.844 61.3426Z" fill="white" mask="url(#path-1-outside-1_101_141)"/>
</svg>
